M48
; DRILL file {KiCad 9.0.7} date 2026-04-19T22:12:19-0600
; FORMAT={-:-/ absolute / metric / decimal}
; #@! TF.CreationDate,2026-04-19T22:12:19-06:00
; #@! TF.GenerationSoftware,Kicad,Pcbnew,9.0.7
; #@! TF.FileFunction,NonPlated,1,4,NPTH
FMAT,2
METRIC
; #@! TA.AperFunction,NonPlated,NPTH,ComponentDrill
T1C0.500
; #@! TA.AperFunction,NonPlated,NPTH,ComponentDrill
T2C1.100
; #@! TA.AperFunction,NonPlated,NPTH,ComponentDrill
T3C1.600
; #@! TA.AperFunction,NonPlated,NPTH,ComponentDrill
T4C2.500
; #@! TA.AperFunction,NonPlated,NPTH,ComponentDrill
T5C2.540
; #@! TA.AperFunction,NonPlated,NPTH,ComponentDrill
T6C3.000
; #@! TA.AperFunction,NonPlated,NPTH,ComponentDrill
T7C3.250
%
G90
G05
T1
X56.8Y-120.25
X56.8Y-122.75
X57.65Y-120.25
X57.65Y-122.75
X59.35Y-120.25
X59.35Y-122.75
X60.2Y-120.25
X60.2Y-122.75
X100.3Y-120.25
X100.3Y-122.75
X101.15Y-120.25
X101.15Y-122.75
X102.85Y-120.25
X102.85Y-122.75
X103.7Y-120.25
X103.7Y-122.75
X139.8Y-120.25
X139.8Y-122.75
X140.65Y-120.25
X140.65Y-122.75
X142.35Y-120.25
X142.35Y-122.75
X143.2Y-120.25
X143.2Y-122.75
X152.9Y-134.14
X152.9Y-134.99
X152.9Y-136.69
X152.9Y-137.54
X152.9Y-151.8
X152.9Y-152.65
X152.9Y-154.35
X152.9Y-155.2
X152.9Y-168.45
X152.9Y-169.3
X152.9Y-171.0
X152.9Y-171.85
X155.4Y-134.14
X155.4Y-134.99
X155.4Y-136.69
X155.4Y-137.54
X155.4Y-151.8
X155.4Y-152.65
X155.4Y-154.35
X155.4Y-155.2
X155.4Y-168.45
X155.4Y-169.3
X155.4Y-171.0
X155.4Y-171.85
X162.8Y-120.25
X162.8Y-122.75
X163.65Y-120.25
X163.65Y-122.75
X165.35Y-120.25
X165.35Y-122.75
X166.2Y-120.25
X166.2Y-122.75
X201.8Y-120.25
X201.8Y-122.75
X202.65Y-120.25
X202.65Y-122.75
X204.35Y-120.25
X204.35Y-122.75
X205.2Y-120.25
X205.2Y-122.75
X233.8Y-120.25
X233.8Y-122.75
X234.65Y-120.25
X234.65Y-122.75
X236.35Y-120.25
X236.35Y-122.75
X237.2Y-120.25
X237.2Y-122.75
T2
X178.65Y-117.867
T3
X178.65Y-51.067
T4
X176.576Y-140.159
X176.576Y-157.939
T5
X222.296Y-140.159
X222.296Y-157.939
T7
X178.265Y-37.325
X189.695Y-37.325
X197.765Y-37.325
X209.195Y-37.325
T6
G00X236.45Y-73.667
M15
G01X234.45Y-73.667
M16
G05
G00X236.45Y-106.667
M15
G01X234.45Y-106.667
M16
G05
M30
