M48
; DRILL file {KiCad 9.0.7} date 2026-04-19T22:12:19-0600
; FORMAT={-:-/ absolute / metric / decimal}
; #@! TF.CreationDate,2026-04-19T22:12:19-06:00
; #@! TF.GenerationSoftware,Kicad,Pcbnew,9.0.7
; #@! TF.FileFunction,Plated,1,4,PTH
FMAT,2
METRIC
; #@! TA.AperFunction,Plated,PTH,ViaDrill
T1C0.300
; #@! TA.AperFunction,Plated,PTH,ComponentDrill
T2C0.300
; #@! TA.AperFunction,Plated,PTH,ComponentDrill
T3C0.500
; #@! TA.AperFunction,Plated,PTH,ComponentDrill
T4C0.600
; #@! TA.AperFunction,Plated,PTH,ComponentDrill
T5C0.890
; #@! TA.AperFunction,Plated,PTH,ComponentDrill
T6C0.950
; #@! TA.AperFunction,Plated,PTH,ComponentDrill
T7C1.000
; #@! TA.AperFunction,Plated,PTH,ComponentDrill
T8C1.016
; #@! TA.AperFunction,Plated,PTH,ComponentDrill
T9C1.020
; #@! TA.AperFunction,Plated,PTH,ComponentDrill
T10C1.300
; #@! TA.AperFunction,Plated,PTH,ComponentDrill
T11C1.350
; #@! TA.AperFunction,Plated,PTH,ComponentDrill
T12C1.400
; #@! TA.AperFunction,Plated,PTH,ComponentDrill
T13C1.450
; #@! TA.AperFunction,Plated,PTH,ComponentDrill
T14C1.630
; #@! TA.AperFunction,Plated,PTH,ComponentDrill
T15C2.700
; #@! TA.AperFunction,Plated,PTH,ComponentDrill
T16C4.300
%
G90
G05
T1
X54.4Y-53.4
X54.4Y-56.35
X54.42Y-61.65
X54.42Y-64.14
X54.46Y-66.64
X54.48Y-59.14
X55.915Y-177.955
X57.52Y-92.63
X57.6Y-53.4
X57.64Y-56.33
X58.396Y-159.729
X58.896Y-179.229
X59.646Y-167.729
X59.7Y-78.5
X59.72Y-76.23
X59.95Y-59.15
X59.95Y-61.65
X59.95Y-66.65
X60.0Y-64.2
X60.2Y-81.3
X60.9Y-71.3
X62.02Y-74.02
X62.53Y-74.7
X62.65Y-90.8
X62.65Y-91.8
X62.65Y-92.75
X62.65Y-97.1
X63.89Y-73.43
X65.2Y-59.2
X65.2Y-61.8
X65.2Y-64.2
X65.2Y-66.6
X65.22Y-85.03
X65.396Y-163.979
X67.146Y-156.979
X67.146Y-157.979
X67.146Y-161.979
X67.146Y-162.979
X67.2Y-53.4
X67.2Y-56.45
X68.146Y-156.979
X68.146Y-157.979
X68.146Y-161.979
X68.146Y-162.979
X68.2Y-74.95
X68.896Y-167.729
X69.146Y-156.979
X69.146Y-157.979
X69.146Y-161.979
X69.146Y-162.979
X69.9Y-72.4
X70.29Y-56.38
X70.49Y-61.65
X70.52Y-64.16
X70.53Y-59.15
X70.6Y-53.4
X70.67Y-66.65
X71.6Y-80.8
X71.7Y-75.7
X72.046Y-168.579
X73.896Y-166.229
X74.846Y-146.979
X75.146Y-148.479
X75.346Y-145.679
X75.6Y-91.0
X76.9Y-118.2
X77.646Y-149.979
X77.646Y-154.879
X77.646Y-165.729
X77.746Y-143.079
X78.446Y-140.979
X78.846Y-144.879
X78.946Y-141.779
X79.046Y-148.629
X79.446Y-139.179
X79.846Y-146.379
X79.896Y-141.579
X80.146Y-154.879
X80.146Y-165.729
X80.646Y-142.279
X81.146Y-152.979
X81.446Y-141.729
X81.846Y-149.879
X82.646Y-157.679
X83.146Y-152.479
X83.646Y-169.979
X83.646Y-170.979
X83.646Y-171.979
X83.746Y-142.479
X84.396Y-158.229
X84.396Y-159.479
X84.396Y-161.479
X84.396Y-162.729
X84.396Y-180.229
X84.646Y-142.229
X84.846Y-140.479
X84.946Y-136.179
X85.146Y-172.979
X86.146Y-172.979
X86.2Y-113.5
X86.446Y-150.879
X86.646Y-140.479
X86.896Y-158.229
X86.896Y-159.479
X87.146Y-136.179
X87.146Y-172.979
X87.496Y-150.929
X88.146Y-164.479
X88.146Y-165.479
X88.146Y-166.479
X88.146Y-167.479
X88.146Y-168.479
X88.346Y-153.179
X89.146Y-164.479
X89.146Y-165.479
X89.146Y-166.479
X89.146Y-167.479
X89.146Y-168.479
X89.246Y-149.779
X89.246Y-140.329
X89.546Y-143.879
X90.146Y-164.479
X90.146Y-165.479
X90.146Y-166.479
X90.146Y-167.479
X90.146Y-168.479
X91.38Y-56.39
X91.48Y-53.5
X91.48Y-59.24
X91.49Y-61.74
X91.5Y-64.26
X91.51Y-66.74
X91.6Y-118.2
X91.646Y-143.579
X91.646Y-148.779
X91.996Y-150.029
X92.0Y-95.3
X92.046Y-168.379
X92.396Y-180.229
X92.846Y-143.679
X93.146Y-171.479
X93.146Y-172.479
X93.15Y-105.47
X93.16Y-109.43
X93.7Y-97.8
X93.786Y-146.549
X94.146Y-171.479
X94.146Y-172.479
X94.58Y-93.41
X94.68Y-53.5
X94.9Y-56.49
X95.146Y-171.479
X95.146Y-172.479
X95.26Y-97.32
X95.336Y-149.189
X95.356Y-148.589
X95.946Y-148.579
X95.976Y-149.179
X96.78Y-78.6
X96.85Y-76.15
X97.03Y-59.25
X97.03Y-61.75
X97.03Y-66.75
X97.08Y-64.3
X97.146Y-170.179
X97.28Y-81.4
X97.98Y-71.4
X98.58Y-93.65
X98.58Y-96.57
X98.9Y-74.22
X99.63Y-74.83
X99.646Y-180.229
X100.246Y-143.429
X100.246Y-158.479
X100.646Y-171.729
X101.0Y-73.54
X101.846Y-153.179
X102.246Y-143.979
X102.28Y-59.3
X102.28Y-61.9
X102.28Y-64.3
X102.28Y-66.7
X102.646Y-176.979
X102.646Y-177.979
X102.646Y-178.979
X102.927Y-84.013
X104.21Y-56.37
X104.28Y-53.5
X104.546Y-141.329
X105.28Y-75.05
X105.732Y-106.508
X105.79Y-97.49
X106.575Y-96.24
X106.98Y-72.5
X107.5Y-56.41
X107.646Y-176.979
X107.646Y-177.979
X107.646Y-178.979
X107.65Y-61.76
X107.68Y-53.5
X107.68Y-59.25
X107.73Y-66.76
X107.74Y-64.25
X107.757Y-96.503
X107.825Y-102.99
X108.48Y-88.1
X108.51Y-108.66
X108.546Y-143.379
X108.68Y-80.9
X108.78Y-75.8
X109.1Y-97.5
X109.2Y-107.9
X109.446Y-150.429
X109.8Y-100.5
X110.0Y-107.1
X110.325Y-96.09
X110.346Y-154.179
X111.0Y-106.5
X112.075Y-97.24
X112.146Y-172.729
X112.146Y-178.479
X112.48Y-106.2
X112.8Y-103.8
X113.025Y-104.865
X113.67Y-32.84
X114.296Y-143.129
X114.546Y-168.379
X114.646Y-172.729
X114.646Y-178.479
X114.81Y-95.66
X116.1Y-95.0
X117.146Y-172.729
X117.146Y-178.479
X117.546Y-156.779
X117.673Y-140.179
X117.896Y-169.979
X119.146Y-169.979
X119.646Y-172.729
X119.646Y-178.479
X119.7Y-110.08
X120.396Y-169.979
X120.846Y-143.479
X121.646Y-169.979
X122.146Y-172.729
X122.146Y-178.479
X122.896Y-164.729
X122.896Y-165.979
X122.896Y-167.229
X122.896Y-168.479
X122.896Y-169.979
X122.996Y-159.829
X122.996Y-161.129
X122.996Y-162.379
X123.046Y-158.579
X124.296Y-158.529
X124.296Y-159.829
X124.296Y-161.129
X124.42Y-106.08
X124.946Y-138.429
X125.046Y-146.229
X125.596Y-158.529
X125.596Y-159.829
X125.596Y-161.129
X126.94Y-106.066
X126.946Y-138.429
X128.32Y-59.19
X128.41Y-56.34
X128.45Y-61.68
X128.485Y-53.445
X128.6Y-64.18
X128.696Y-138.429
X128.73Y-66.69
X131.685Y-53.445
X131.73Y-97.55
X131.746Y-140.329
X131.86Y-56.55
X133.785Y-78.545
X133.91Y-76.1
X134.035Y-59.195
X134.035Y-61.695
X134.035Y-66.695
X134.085Y-64.245
X134.285Y-81.345
X134.985Y-71.345
X135.732Y-84.53
X135.93Y-74.06
X136.67Y-74.75
X136.735Y-97.145
X138.04Y-73.46
X139.285Y-59.245
X139.285Y-61.845
X139.285Y-64.245
X139.285Y-66.645
X141.15Y-56.5
X141.285Y-53.445
X142.285Y-74.995
X142.656Y-158.799
X142.666Y-160.579
X143.985Y-72.445
X144.42Y-56.53
X144.446Y-146.479
X144.55Y-59.18
X144.62Y-61.69
X144.68Y-64.21
X144.685Y-53.445
X144.73Y-66.72
X145.685Y-80.845
X145.785Y-75.745
X151.07Y-138.59
X151.83Y-85.812
X152.6Y-105.2
X153.3Y-81.8
X154.58Y-46.95
X154.6Y-81.5
X155.572Y-112.362
X155.572Y-114.112
X155.572Y-115.712
X155.572Y-117.362
X155.572Y-118.862
X155.822Y-85.612
X155.822Y-87.862
X155.822Y-90.362
X155.828Y-92.109
X156.072Y-94.362
X156.072Y-95.362
X156.93Y-46.7
X157.072Y-94.362
X157.072Y-95.362
X159.472Y-119.012
X161.296Y-170.029
X161.322Y-85.612
X161.322Y-86.612
X161.322Y-87.612
X161.322Y-88.612
X161.322Y-89.612
X161.322Y-90.612
X161.322Y-91.612
X161.322Y-92.612
X161.322Y-93.612
X161.596Y-161.229
X162.322Y-85.612
X162.322Y-86.612
X162.322Y-87.612
X162.322Y-88.612
X162.322Y-89.612
X162.322Y-90.612
X162.322Y-91.612
X162.322Y-92.612
X162.322Y-93.612
X162.946Y-159.079
X162.946Y-162.929
X163.072Y-116.362
X163.3Y-77.4
X163.696Y-156.479
X163.746Y-153.879
X164.001Y-76.501
X164.106Y-36.456
X164.322Y-107.612
X164.322Y-108.612
X164.572Y-119.362
X164.646Y-158.229
X164.822Y-117.612
X165.322Y-107.612
X165.322Y-108.612
X165.615Y-30.71
X165.705Y-36.301
X165.875Y-82.995
X166.322Y-107.612
X166.322Y-108.612
X166.646Y-159.079
X166.846Y-164.279
X167.072Y-117.612
X167.3Y-79.0
X167.322Y-93.112
X167.322Y-107.612
X167.322Y-108.612
X167.5Y-81.8
X168.0Y-94.5
X168.096Y-159.479
X168.1Y-80.7
X168.179Y-74.6
X168.2Y-78.2
X168.39Y-117.69
X168.4Y-103.1
X168.48Y-59.02
X168.53Y-46.02
X168.572Y-88.502
X168.572Y-90.612
X168.6Y-87.0
X168.63Y-69.52
X168.746Y-140.779
X168.822Y-111.112
X168.822Y-112.112
X168.9Y-99.9
X169.096Y-161.229
X169.23Y-66.02
X169.246Y-170.079
X169.671Y-86.152
X169.68Y-117.67
X169.822Y-110.112
X169.822Y-111.112
X169.822Y-112.112
X170.73Y-49.8
X170.73Y-64.77
X170.73Y-73.02
X170.822Y-110.112
X170.822Y-111.112
X170.822Y-112.112
X170.98Y-106.52
X171.73Y-107.292
X171.73Y-108.142
X172.23Y-67.52
X172.23Y-109.095
X172.23Y-109.945
X172.48Y-59.27
X172.48Y-61.27
X172.48Y-62.77
X172.48Y-65.77
X172.48Y-70.52
X172.48Y-72.27
X172.48Y-80.52
X172.73Y-74.02
X172.73Y-76.27
X172.8Y-96.6
X172.9Y-97.8
X173.73Y-48.02
X173.73Y-49.02
X173.73Y-50.02
X173.73Y-51.02
X174.73Y-48.02
X174.73Y-49.02
X174.73Y-50.02
X174.73Y-51.02
X176.146Y-169.379
X176.2Y-95.9
X176.2Y-97.2
X176.2Y-98.45
X176.261Y-99.298
X176.3Y-80.4
X176.38Y-58.67
X176.41Y-55.93
X176.46Y-58.01
X176.48Y-57.0
X176.48Y-69.27
X176.73Y-104.27
X176.73Y-108.77
X176.98Y-64.27
X176.98Y-110.77
X176.98Y-112.27
X176.98Y-114.02
X176.98Y-115.77
X177.02Y-56.33
X177.03Y-58.66
X177.04Y-57.5
X177.085Y-82.125
X177.23Y-61.692
X177.23Y-62.542
X177.23Y-66.492
X177.23Y-67.342
X177.23Y-83.77
X177.4Y-78.77
X177.5Y-119.13
X177.63Y-88.42
X177.65Y-86.41
X177.75Y-76.235
X177.846Y-171.479
X177.85Y-53.27
X177.85Y-54.27
X177.85Y-55.27
X177.85Y-59.845
X177.85Y-60.695
X178.48Y-64.692
X178.48Y-65.542
X179.05Y-70.725
X179.155Y-94.569
X179.23Y-53.27
X179.23Y-54.27
X179.23Y-55.27
X179.679Y-56.469
X179.865Y-79.098
X179.98Y-108.52
X180.05Y-63.52
X180.2Y-81.76
X180.23Y-86.02
X180.281Y-57.071
X180.48Y-112.52
X180.48Y-114.27
X180.48Y-116.02
X180.73Y-76.52
X180.9Y-82.9
X182.23Y-49.02
X182.23Y-50.02
X182.23Y-51.02
X183.446Y-145.279
X184.98Y-88.02
X184.98Y-104.77
X185.48Y-76.27
X185.48Y-91.77
X185.48Y-108.77
X185.583Y-94.098
X185.63Y-86.02
X185.73Y-110.77
X186.03Y-84.967
X186.23Y-99.32
X186.23Y-103.02
X186.33Y-98.12
X186.48Y-104.52
X186.667Y-97.157
X186.73Y-52.02
X186.73Y-53.02
X186.73Y-54.02
X186.73Y-55.02
X186.73Y-56.02
X186.73Y-57.02
X187.43Y-72.12
X187.73Y-54.02
X187.73Y-55.02
X187.73Y-56.02
X190.93Y-84.82
X191.03Y-85.82
X191.43Y-61.82
X192.53Y-102.72
X192.63Y-96.92
X193.115Y-91.005
X193.73Y-48.32
X195.4Y-118.35
X198.53Y-54.82
X199.05Y-47.79
X199.346Y-143.779
X200.13Y-112.12
X200.33Y-47.8
X200.63Y-117.22
X201.445Y-83.635
X203.33Y-103.02
X203.43Y-42.38
X204.39Y-42.39
X205.046Y-133.179
X206.33Y-111.62
X211.23Y-101.82
X212.63Y-96.52
X212.73Y-48.82
X212.95Y-51.62
X213.33Y-75.42
X213.6Y-43.8
X213.7Y-30.4
X215.246Y-143.579
X216.846Y-168.779
X217.304Y-48.234
X217.53Y-46.17
X217.53Y-47.17
X217.795Y-67.285
X217.98Y-100.02
X218.73Y-99.02
X218.943Y-44.429
X219.65Y-49.691
X219.754Y-44.683
X220.6Y-44.6
X220.646Y-160.879
X222.5Y-49.08
X223.43Y-109.42
X223.83Y-45.2
X224.27Y-44.61
X226.13Y-64.32
X227.361Y-44.959
X228.1Y-71.1
X229.7Y-30.7
X229.8Y-55.12
X229.9Y-71.1
X230.7Y-29.8
X230.705Y-38.015
X231.53Y-95.12
X231.63Y-82.42
X231.7Y-53.0
X232.0Y-54.0
X232.1Y-37.81
X232.346Y-155.379
X233.5Y-37.81
X234.9Y-37.81
X235.7Y-59.977
X236.33Y-67.72
X236.346Y-164.779
X236.79Y-50.12
X237.23Y-100.42
X237.43Y-54.22
X237.45Y-48.66
T2
X84.196Y-145.519
X84.196Y-146.679
X84.196Y-147.839
X85.131Y-144.629
X85.131Y-145.519
X85.131Y-146.679
X85.131Y-147.839
X85.131Y-148.729
X86.361Y-144.629
X86.361Y-145.519
X86.361Y-146.679
X86.361Y-147.839
X86.361Y-148.729
X87.296Y-145.519
X87.296Y-146.679
X87.296Y-147.839
X162.137Y-111.323
X162.137Y-112.463
X162.137Y-113.603
X162.787Y-110.753
X162.787Y-111.893
X162.787Y-113.033
X162.787Y-114.173
X163.437Y-111.323
X163.437Y-112.463
X163.437Y-113.603
T4
X45.921Y-128.779
X45.921Y-176.779
X46.866Y-126.499
X46.866Y-131.06
X46.866Y-174.499
X46.866Y-179.06
X49.146Y-125.554
X49.146Y-132.004
X49.146Y-173.554
X49.146Y-180.004
X51.426Y-126.499
X51.426Y-131.06
X51.426Y-174.499
X51.426Y-179.06
X52.371Y-128.779
X52.371Y-176.779
X144.921Y-128.779
X144.921Y-176.779
X145.866Y-126.499
X145.866Y-131.06
X145.866Y-174.499
X145.866Y-179.06
X148.146Y-125.554
X148.146Y-132.004
X148.146Y-173.554
X148.146Y-180.004
X150.426Y-126.499
X150.426Y-131.06
X150.426Y-174.499
X150.426Y-179.06
X151.371Y-128.779
X151.371Y-176.779
X156.921Y-128.779
X156.921Y-176.779
X157.866Y-126.499
X157.866Y-131.06
X157.866Y-174.499
X157.866Y-179.06
X160.146Y-125.554
X160.146Y-132.004
X160.146Y-173.554
X160.146Y-180.004
X162.426Y-126.499
X162.426Y-131.06
X162.426Y-174.499
X162.426Y-179.06
X163.371Y-128.779
X163.371Y-176.779
X234.275Y-128.779
X234.275Y-176.5
X235.22Y-126.499
X235.22Y-131.06
X235.22Y-174.22
X235.22Y-178.78
X237.5Y-125.554
X237.5Y-132.004
X237.5Y-173.275
X237.5Y-179.725
X239.78Y-126.499
X239.78Y-131.06
X239.78Y-174.22
X239.78Y-178.78
X240.725Y-128.779
X240.725Y-176.5
T5
X178.26Y-43.675
X179.54Y-46.215
X180.8Y-43.675
X182.08Y-46.215
X183.34Y-43.675
X184.62Y-46.215
X185.88Y-43.675
X187.16Y-46.215
X188.42Y-43.675
X189.7Y-46.215
X197.76Y-43.675
X199.04Y-46.215
X200.3Y-43.675
X201.58Y-46.215
X202.84Y-43.675
X204.12Y-46.215
X205.38Y-43.675
X206.66Y-46.215
X207.92Y-43.675
X209.2Y-46.215
T6
X147.446Y-142.579
X147.446Y-145.079
X147.446Y-147.579
X147.446Y-150.079
X147.446Y-152.579
X156.08Y-55.85
X156.08Y-58.35
X156.08Y-60.85
X156.08Y-63.35
X156.08Y-65.85
X158.475Y-30.94
X158.475Y-33.44
X158.475Y-35.94
X158.475Y-38.44
X158.475Y-40.94
X161.246Y-138.479
X161.246Y-140.979
X161.246Y-143.479
X161.246Y-145.979
X161.246Y-148.479
X164.08Y-58.35
X164.08Y-60.85
X164.08Y-63.35
X164.08Y-65.85
X171.52Y-35.54
X171.52Y-38.04
X171.52Y-40.54
X171.52Y-43.04
T7
X47.021Y-138.629
X47.021Y-141.129
X48.325Y-29.96
X48.325Y-32.5
X48.325Y-35.04
X49.81Y-41.995
X49.81Y-44.535
X49.81Y-47.075
X49.81Y-49.615
X49.81Y-52.155
X49.81Y-54.695
X49.81Y-67.395
X49.81Y-69.935
X49.81Y-72.475
X49.81Y-75.015
X49.81Y-77.555
X49.81Y-80.095
X49.81Y-82.635
X49.81Y-85.175
X49.81Y-87.715
X50.865Y-29.96
X50.865Y-32.5
X50.865Y-35.04
X53.62Y-41.995
X53.62Y-44.535
X56.16Y-41.995
X56.16Y-44.535
X59.382Y-102.75
X59.382Y-113.75
X61.24Y-41.995
X61.24Y-44.535
X63.78Y-41.995
X63.78Y-44.535
X64.382Y-102.75
X64.382Y-113.75
X67.37Y-173.942
X67.37Y-176.482
X68.396Y-159.979
X68.86Y-41.995
X68.86Y-44.535
X69.91Y-173.942
X69.91Y-176.482
X71.15Y-98.28
X71.16Y-94.01
X71.4Y-41.995
X71.4Y-44.535
X72.45Y-173.942
X72.45Y-176.482
X73.396Y-159.979
X73.69Y-98.28
X73.7Y-94.01
X74.99Y-173.942
X74.99Y-176.482
X75.21Y-41.995
X75.21Y-44.535
X75.21Y-47.075
X75.21Y-49.615
X75.21Y-52.155
X75.21Y-54.695
X75.21Y-77.555
X75.21Y-80.095
X75.21Y-82.635
X75.21Y-85.175
X75.21Y-87.715
X76.23Y-98.28
X76.24Y-94.01
X83.345Y-29.82
X83.345Y-32.36
X83.345Y-34.9
X85.885Y-29.82
X85.885Y-32.36
X85.885Y-34.9
X86.146Y-165.862
X86.146Y-170.862
X86.89Y-42.095
X86.89Y-44.635
X86.89Y-47.175
X86.89Y-49.715
X86.89Y-52.255
X86.89Y-54.795
X86.89Y-67.495
X86.89Y-70.035
X86.89Y-72.575
X86.89Y-75.115
X86.89Y-77.655
X86.89Y-80.195
X86.89Y-82.735
X86.89Y-85.275
X86.89Y-87.815
X90.7Y-42.095
X90.7Y-44.635
X93.24Y-42.095
X93.24Y-44.635
X96.462Y-102.85
X96.462Y-113.85
X98.32Y-42.095
X98.32Y-44.635
X100.86Y-42.095
X100.86Y-44.635
X101.462Y-102.85
X101.462Y-113.85
X105.146Y-173.112
X105.146Y-178.112
X105.94Y-42.095
X105.94Y-44.635
X106.206Y-146.179
X108.48Y-42.095
X108.48Y-44.635
X108.746Y-146.179
X112.29Y-42.095
X112.29Y-44.635
X112.29Y-47.175
X112.29Y-49.715
X112.29Y-52.255
X112.29Y-54.795
X112.29Y-77.655
X112.29Y-80.195
X112.29Y-82.735
X112.29Y-85.275
X112.29Y-87.815
X112.466Y-146.729
X112.466Y-149.269
X115.006Y-146.729
X115.006Y-149.269
X117.546Y-146.729
X117.546Y-149.269
X120.086Y-146.729
X120.086Y-149.269
X122.025Y-30.96
X122.025Y-33.5
X122.025Y-36.04
X122.626Y-146.729
X122.626Y-149.269
X123.895Y-42.04
X123.895Y-44.58
X123.895Y-47.12
X123.895Y-49.66
X123.895Y-52.2
X123.895Y-54.74
X123.895Y-67.44
X123.895Y-69.98
X123.895Y-72.52
X123.895Y-75.06
X123.895Y-77.6
X123.895Y-80.14
X123.895Y-82.68
X123.895Y-85.22
X123.895Y-87.76
X124.565Y-30.96
X124.565Y-33.5
X124.565Y-36.04
X127.705Y-42.04
X127.705Y-44.58
X130.245Y-42.04
X130.245Y-44.58
X133.467Y-102.795
X133.467Y-113.795
X135.325Y-42.04
X135.325Y-44.58
X137.865Y-42.04
X137.865Y-44.58
X138.467Y-102.795
X138.467Y-113.795
X142.945Y-42.04
X142.945Y-44.58
X145.485Y-42.04
X145.485Y-44.58
X149.295Y-42.04
X149.295Y-44.58
X149.295Y-47.12
X149.295Y-49.66
X149.295Y-52.2
X149.295Y-54.74
X149.295Y-77.6
X149.295Y-80.14
X149.295Y-82.68
X149.295Y-85.22
X149.295Y-87.76
X149.49Y-111.37
X149.49Y-116.37
X151.357Y-96.412
X153.897Y-96.412
X168.43Y-29.5
X170.93Y-29.5
X180.386Y-159.209
X182.926Y-159.209
X185.466Y-159.209
X188.006Y-159.209
X190.546Y-138.889
X190.546Y-159.209
X193.086Y-138.889
X193.086Y-159.209
X195.626Y-138.889
X195.626Y-159.209
X198.166Y-138.889
X198.166Y-159.209
X200.706Y-138.889
X200.706Y-159.209
X203.246Y-138.889
X203.246Y-159.209
X205.786Y-138.889
X205.786Y-159.209
X208.326Y-138.889
X208.326Y-159.209
X210.866Y-138.889
X210.866Y-159.209
X213.406Y-138.889
X213.406Y-159.209
X215.946Y-138.889
X215.946Y-159.209
X218.23Y-32.895
X218.23Y-41.06
X218.486Y-138.889
X218.486Y-159.209
X220.73Y-32.895
X220.73Y-41.06
X222.73Y-32.895
X222.73Y-41.06
X225.23Y-32.895
X225.23Y-41.06
X233.1Y-28.5
X233.1Y-31.04
X233.1Y-33.58
X237.935Y-28.11
X237.935Y-30.65
X237.935Y-33.19
X237.935Y-35.73
X237.935Y-38.27
X237.935Y-40.81
X237.935Y-43.35
X237.935Y-45.89
X238.03Y-57.445
X238.03Y-59.985
X238.03Y-62.525
X238.03Y-65.065
X238.03Y-67.605
X240.475Y-28.11
X240.475Y-30.65
X240.475Y-33.19
X240.475Y-35.73
X240.475Y-38.27
X240.475Y-40.81
X240.475Y-43.35
X240.475Y-45.89
T8
X173.723Y-127.537
X173.723Y-175.797
X176.263Y-127.537
X176.263Y-175.797
X178.803Y-127.537
X178.803Y-175.797
X181.343Y-127.537
X181.343Y-175.797
X183.883Y-127.537
X183.883Y-175.797
X186.423Y-127.537
X186.423Y-175.797
X188.963Y-175.797
X191.503Y-127.537
X191.503Y-175.797
X194.043Y-127.537
X195.567Y-175.797
X196.583Y-127.537
X198.107Y-175.797
X199.123Y-127.537
X200.647Y-175.797
X201.663Y-127.537
X203.187Y-175.797
X204.203Y-127.537
X205.727Y-175.797
X206.743Y-127.537
X208.267Y-175.797
X209.283Y-127.537
X210.807Y-175.797
X213.347Y-175.797
X215.887Y-175.797
X218.427Y-175.797
T9
X177.355Y-32.425
X179.895Y-32.425
X188.065Y-32.425
X190.605Y-32.425
X196.855Y-32.425
X199.395Y-32.425
X207.565Y-32.425
X210.105Y-32.425
T10
X49.546Y-157.0
X49.546Y-162.08
X49.546Y-167.16
X69.611Y-129.674
X74.691Y-129.674
X89.611Y-129.674
X94.691Y-129.674
X109.611Y-129.674
X109.675Y-115.432
X114.691Y-129.674
X114.755Y-115.432
X127.066Y-176.479
X129.611Y-129.674
X132.146Y-176.479
X134.691Y-129.674
T11
X61.146Y-142.954
X61.146Y-147.954
X61.146Y-157.954
X61.146Y-162.954
X127.121Y-165.079
X132.121Y-165.079
X142.121Y-165.079
X147.121Y-165.079
T12
X230.65Y-47.63
T13
X56.817Y-29.92
X56.817Y-35.42
X61.017Y-29.92
X61.017Y-35.42
X65.218Y-29.92
X65.218Y-35.42
X69.417Y-29.92
X69.417Y-35.42
X91.767Y-29.965
X91.767Y-35.465
X95.968Y-29.965
X95.968Y-35.465
X100.167Y-29.965
X100.167Y-35.465
X104.367Y-29.965
X104.367Y-35.465
X108.567Y-29.965
X108.567Y-35.465
X129.256Y-151.509
X129.256Y-157.009
X130.67Y-30.07
X130.67Y-35.57
X133.456Y-151.509
X133.456Y-157.009
X134.87Y-30.07
X134.87Y-35.57
X137.656Y-151.509
X137.656Y-157.009
X139.07Y-30.07
X139.07Y-35.57
X143.27Y-30.07
X143.27Y-35.57
T14
X176.235Y-40.375
X191.725Y-40.375
X195.735Y-40.375
X211.225Y-40.375
T15
X46.996Y-150.179
X51.996Y-150.179
X63.146Y-127.479
X63.146Y-132.479
X83.146Y-127.479
X83.146Y-132.479
X103.146Y-127.479
X103.146Y-132.479
X121.1Y-116.2
X123.146Y-127.479
X123.146Y-132.479
X126.1Y-116.2
X138.611Y-173.674
X138.611Y-178.674
T16
X49.146Y-128.779
X49.146Y-176.779
X148.146Y-128.779
X148.146Y-176.779
X160.146Y-128.779
X160.146Y-176.779
X237.5Y-128.779
X237.5Y-176.5
T3
G00X215.28Y-31.58
M15
G01X215.28Y-33.38
M16
G05
G00X215.28Y-38.36
M15
G01X215.28Y-40.16
M16
G05
G00X228.18Y-31.58
M15
G01X228.18Y-33.38
M16
G05
G00X228.18Y-38.36
M15
G01X228.18Y-40.16
M16
G05
M30
