M48
; DRILL file {KiCad 9.0.7} date 2026-05-26T09:24:00-0600
; FORMAT={-:-/ absolute / inch / decimal}
; #@! TF.CreationDate,2026-05-26T09:24:00-06:00
; #@! TF.GenerationSoftware,Kicad,Pcbnew,9.0.7
; #@! TF.FileFunction,Plated,1,4,PTH
FMAT,2
INCH
; #@! TA.AperFunction,Plated,PTH,ViaDrill
T1C0.0118
; #@! TA.AperFunction,Plated,PTH,ComponentDrill
T2C0.0118
; #@! TA.AperFunction,Plated,PTH,ComponentDrill
T3C0.0197
; #@! TA.AperFunction,Plated,PTH,ComponentDrill
T4C0.0236
; #@! TA.AperFunction,Plated,PTH,ComponentDrill
T5C0.0350
; #@! TA.AperFunction,Plated,PTH,ComponentDrill
T6C0.0374
; #@! TA.AperFunction,Plated,PTH,ComponentDrill
T7C0.0394
; #@! TA.AperFunction,Plated,PTH,ComponentDrill
T8C0.0400
; #@! TA.AperFunction,Plated,PTH,ComponentDrill
T9C0.0402
; #@! TA.AperFunction,Plated,PTH,ComponentDrill
T10C0.0512
; #@! TA.AperFunction,Plated,PTH,ComponentDrill
T11C0.0531
; #@! TA.AperFunction,Plated,PTH,ComponentDrill
T12C0.0551
; #@! TA.AperFunction,Plated,PTH,ComponentDrill
T13C0.0571
; #@! TA.AperFunction,Plated,PTH,ComponentDrill
T14C0.0642
; #@! TA.AperFunction,Plated,PTH,ComponentDrill
T15C0.1063
; #@! TA.AperFunction,Plated,PTH,ComponentDrill
T16C0.1693
%
G90
G05
T1
X1.7559Y-5.1563
X1.7559Y-5.1996
X1.7559Y-5.2429
X1.7559Y-5.2862
X1.7559Y-5.3295
X1.7559Y-5.3728
X1.7559Y-5.4161
X1.7559Y-5.4594
X1.7559Y-5.5028
X1.7559Y-5.5461
X1.7559Y-5.5894
X1.7559Y-5.6327
X1.7559Y-5.676
X1.7559Y-5.7193
X1.7559Y-5.7626
X1.7559Y-5.8059
X1.7559Y-5.8492
X1.7559Y-5.8925
X1.7559Y-5.9358
X1.7559Y-5.9791
X1.7559Y-6.0224
X1.7559Y-6.0657
X1.7559Y-6.1091
X1.7559Y-6.1524
X1.7559Y-6.1957
X1.7559Y-6.239
X1.7559Y-6.2823
X1.7559Y-6.3256
X1.7559Y-6.3689
X1.7559Y-6.4122
X1.7559Y-6.4555
X1.7559Y-6.4988
X1.7559Y-6.5421
X1.7559Y-6.5854
X1.7559Y-6.6287
X1.7559Y-6.672
X1.7559Y-6.7154
X1.7559Y-6.7587
X1.7559Y-6.802
X1.7559Y-6.8453
X1.7559Y-6.8886
X1.7602Y-1.022
X1.7602Y-1.0654
X1.7602Y-1.1087
X1.7602Y-1.152
X1.7602Y-1.1953
X1.7602Y-1.2386
X1.7602Y-1.2819
X1.7602Y-1.3252
X1.7602Y-1.3685
X1.7602Y-1.4118
X1.7602Y-1.4551
X1.7602Y-1.4984
X1.7602Y-1.5417
X1.7602Y-1.585
X1.7602Y-1.6283
X1.7602Y-1.6717
X1.7602Y-1.715
X1.7602Y-1.7583
X1.7602Y-1.8016
X1.7602Y-1.8449
X1.7602Y-1.8882
X1.7602Y-1.9315
X1.7602Y-1.9748
X1.7602Y-2.0181
X1.7602Y-2.0614
X1.7602Y-2.1047
X1.7602Y-2.148
X1.7602Y-2.1913
X1.7602Y-2.2346
X1.7602Y-2.278
X1.7602Y-2.3213
X1.7602Y-2.3646
X1.7602Y-2.4079
X1.7602Y-2.4512
X1.7602Y-2.4945
X1.7602Y-2.5378
X1.7602Y-2.5811
X1.7602Y-2.6244
X1.7602Y-2.6677
X1.7602Y-2.711
X1.7602Y-2.7543
X1.7602Y-2.7976
X1.7602Y-2.8409
X1.7602Y-2.8843
X1.7602Y-2.9276
X1.7602Y-2.9709
X1.7602Y-3.0142
X1.7602Y-3.0575
X1.7602Y-3.1008
X1.7602Y-3.1441
X1.7602Y-3.1874
X1.7602Y-3.2307
X1.7602Y-3.274
X1.7602Y-3.3173
X1.7602Y-3.3606
X1.7602Y-3.4039
X1.7602Y-3.4472
X1.7602Y-3.4906
X1.7602Y-3.5339
X1.7602Y-3.5772
X1.7602Y-3.6205
X1.7602Y-3.6638
X1.7602Y-3.7071
X1.7602Y-3.7504
X1.7602Y-3.7937
X1.7602Y-3.837
X1.785Y-3.8594
X1.8035Y-1.022
X1.8283Y-3.8594
X1.8469Y-1.022
X1.8717Y-3.8594
X1.8902Y-1.022
X1.915Y-3.8594
X1.9335Y-1.022
X1.9583Y-3.8594
X1.9768Y-1.022
X2.0016Y-3.8594
X2.0028Y-7.1358
X2.0201Y-1.022
X2.0449Y-3.8594
X2.0461Y-7.1358
X2.0634Y-1.022
X2.0736Y-4.8945
X2.0882Y-3.8594
X2.0894Y-7.1358
X2.1067Y-1.022
X2.1315Y-3.8594
X2.1327Y-7.1358
X2.1343Y-3.9083
X2.1343Y-3.9516
X2.1343Y-3.9949
X2.1343Y-4.0382
X2.1343Y-4.0815
X2.1343Y-4.1248
X2.1343Y-4.1681
X2.1343Y-4.2114
X2.1343Y-4.2547
X2.1343Y-4.298
X2.1343Y-4.3413
X2.1343Y-4.3846
X2.1343Y-4.428
X2.1343Y-4.4713
X2.1343Y-4.5146
X2.1343Y-4.5579
X2.1343Y-4.6012
X2.1343Y-4.6445
X2.1343Y-4.6878
X2.1409Y-4.7236
X2.1417Y-2.1024
X2.1417Y-2.2185
X2.1425Y-2.4272
X2.1425Y-2.5252
X2.1441Y-2.6236
X2.1449Y-2.3283
X2.15Y-1.022
X2.1634Y-4.8957
X2.176Y-7.1358
X2.185Y-4.724
X2.1933Y-1.022
X2.2014Y-7.0061
X2.2185Y-4.8602
X2.2193Y-7.1358
X2.2366Y-1.022
X2.2626Y-7.1358
X2.2646Y-3.6469
X2.2677Y-2.1024
X2.2693Y-2.2177
X2.2799Y-1.022
X2.2991Y-6.2886
X2.3059Y-7.1358
X2.3187Y-7.0563
X2.3232Y-1.022
X2.3483Y-6.6035
X2.3492Y-7.1358
X2.3504Y-3.0906
X2.3512Y-3.0012
X2.3602Y-2.3287
X2.3602Y-2.4272
X2.3602Y-2.624
X2.3622Y-2.5276
X2.3665Y-1.022
X2.3701Y-3.2008
X2.3925Y-7.1358
X2.3976Y-2.8071
X2.4016Y-4.8409
X2.4028Y-4.726
X2.4098Y-1.022
X2.4358Y-7.1358
X2.4417Y-2.9142
X2.4449Y-4.8409
X2.4461Y-4.726
X2.4531Y-1.022
X2.4618Y-2.9409
X2.4665Y-3.5748
X2.4665Y-3.6142
X2.4665Y-3.6516
X2.4665Y-3.8228
X2.4791Y-7.1358
X2.4882Y-4.8409
X2.4894Y-4.726
X2.4965Y-1.022
X2.5154Y-2.8909
X2.5224Y-7.1358
X2.5315Y-4.8409
X2.5327Y-4.726
X2.5398Y-1.022
X2.5657Y-7.1358
X2.5669Y-2.3307
X2.5669Y-2.4331
X2.5669Y-2.5276
X2.5669Y-2.622
X2.5677Y-3.3476
X2.5746Y-6.4559
X2.5748Y-4.8409
X2.576Y-4.726
X2.5831Y-1.022
X2.5988Y-5.7083
X2.6091Y-7.1358
X2.6181Y-4.8409
X2.6193Y-4.726
X2.6264Y-1.022
X2.6435Y-6.1803
X2.6435Y-6.2197
X2.6435Y-6.3771
X2.6435Y-6.4165
X2.6457Y-2.1024
X2.6457Y-2.2224
X2.6524Y-7.1358
X2.6614Y-4.8409
X2.6626Y-4.726
X2.6638Y-5.6327
X2.6697Y-1.022
X2.6829Y-6.1803
X2.6829Y-6.2197
X2.6829Y-6.3771
X2.6829Y-6.4165
X2.685Y-2.9508
X2.6957Y-7.1358
X2.7047Y-4.8409
X2.7059Y-4.726
X2.7124Y-6.6035
X2.713Y-1.022
X2.7223Y-6.1803
X2.7223Y-6.2197
X2.7223Y-6.3771
X2.7223Y-6.4165
X2.7224Y-5.7083
X2.739Y-7.1358
X2.748Y-4.8409
X2.7492Y-4.726
X2.752Y-2.8504
X2.7563Y-1.022
X2.7661Y-5.8504
X2.7673Y-2.2197
X2.7752Y-2.4272
X2.7764Y-2.526
X2.7768Y-2.3287
X2.7795Y-2.1024
X2.7823Y-2.624
X2.7823Y-7.1358
X2.7913Y-4.8409
X2.7925Y-4.726
X2.7953Y-5.872
X2.7996Y-1.022
X2.8185Y-5.8488
X2.8189Y-3.1811
X2.8228Y-2.9803
X2.8256Y-7.1358
X2.8346Y-4.8409
X2.8358Y-4.726
X2.8365Y-6.637
X2.8429Y-1.022
X2.8437Y-3.4094
X2.8563Y-6.6087
X2.8689Y-7.1358
X2.878Y-4.8409
X2.8791Y-4.726
X2.8862Y-1.022
X2.9093Y-6.5445
X2.9122Y-7.1358
X2.9213Y-4.8409
X2.9224Y-4.726
X2.9244Y-5.7618
X2.9295Y-1.022
X2.937Y-3.585
X2.9467Y-5.7866
X2.9555Y-7.1358
X2.9585Y-5.8456
X2.9646Y-4.8409
X2.9657Y-4.726
X2.9664Y-5.7354
X2.9728Y-1.022
X2.9764Y-3.5827
X2.9929Y-4.6488
X2.9988Y-7.1358
X3.0079Y-4.8409
X3.0091Y-4.726
X3.0161Y-1.022
X3.0276Y-4.6535
X3.0421Y-7.1358
X3.0512Y-4.8409
X3.0524Y-4.726
X3.0569Y-5.9047
X3.0569Y-6.0976
X3.0569Y-6.5248
X3.0594Y-1.022
X3.0609Y-5.633
X3.0748Y-5.5213
X3.0854Y-7.1358
X3.0884Y-5.5504
X3.0945Y-4.8409
X3.0957Y-4.726
X3.1028Y-1.022
X3.1042Y-5.7039
X3.1081Y-5.5819
X3.112Y-5.8516
X3.1268Y-5.6114
X3.1278Y-5.4795
X3.1287Y-7.1358
X3.1378Y-4.8409
X3.139Y-4.726
X3.1406Y-5.8346
X3.1435Y-5.763
X3.1455Y-5.574
X3.1461Y-1.022
X3.1554Y-6.0976
X3.1554Y-6.5248
X3.163Y-6.0311
X3.172Y-7.1358
X3.175Y-5.6016
X3.1811Y-4.8409
X3.1823Y-4.726
X3.1894Y-1.022
X3.1947Y-6.0228
X3.2065Y-5.5799
X3.2154Y-7.1358
X3.222Y-5.689
X3.2223Y-5.9008
X3.2244Y-4.8409
X3.2256Y-4.726
X3.2327Y-1.022
X3.25Y-6.0256
X3.2538Y-6.2078
X3.2587Y-7.1358
X3.2677Y-4.8409
X3.2689Y-4.726
X3.2735Y-6.0031
X3.2752Y-5.8898
X3.276Y-1.022
X3.2931Y-6.6921
X3.2931Y-6.7315
X3.2931Y-6.7708
X3.2971Y-5.6094
X3.302Y-7.1358
X3.311Y-4.8409
X3.3122Y-4.726
X3.3193Y-1.022
X3.3227Y-6.2295
X3.3227Y-6.2787
X3.3227Y-6.3575
X3.3227Y-6.4067
X3.3227Y-7.0956
X3.3325Y-5.5996
X3.3404Y-5.5307
X3.3443Y-5.3614
X3.3453Y-7.1358
X3.3522Y-6.8102
X3.3543Y-4.8409
X3.3555Y-4.726
X3.3626Y-1.022
X3.3886Y-7.1358
X3.3916Y-6.8102
X3.3937Y-4.4685
X3.3976Y-4.8409
X3.3988Y-4.726
X3.4034Y-5.9401
X3.4055Y-4.437
X3.4059Y-1.022
X3.4113Y-5.5307
X3.4211Y-6.2295
X3.4211Y-6.2787
X3.4309Y-5.3614
X3.4309Y-6.8102
X3.4319Y-7.1358
X3.4409Y-4.8409
X3.4421Y-4.726
X3.4447Y-5.9421
X3.4453Y-5.5791
X3.4492Y-1.022
X3.4752Y-7.1358
X3.4782Y-6.0307
X3.4843Y-4.8409
X3.4854Y-4.726
X3.4925Y-1.022
X3.5136Y-5.8968
X3.5136Y-5.5248
X3.5185Y-7.1358
X3.5244Y-5.6311
X3.5254Y-5.6645
X3.5276Y-4.8409
X3.5287Y-4.726
X3.5358Y-1.022
X3.5618Y-7.1358
X3.5709Y-4.8409
X3.572Y-4.726
X3.5764Y-4.6024
X3.5791Y-1.022
X3.5831Y-5.6323
X3.5976Y-2.2201
X3.5976Y-6.4724
X3.5976Y-6.5118
X3.5976Y-6.5512
X3.6016Y-2.1063
X3.6016Y-2.3323
X3.602Y-2.4307
X3.6024Y-2.5299
X3.6028Y-2.6276
X3.6051Y-7.1358
X3.6063Y-4.6535
X3.6081Y-5.6527
X3.6081Y-5.8575
X3.6142Y-4.8409
X3.6154Y-4.726
X3.6219Y-5.9067
X3.622Y-3.752
X3.6224Y-1.022
X3.6239Y-6.6291
X3.6283Y-6.4567
X3.6283Y-6.4961
X3.6283Y-6.5354
X3.6283Y-6.5748
X3.6339Y-6.6602
X3.6376Y-7.0956
X3.6484Y-7.1358
X3.6554Y-5.6567
X3.6575Y-4.8409
X3.6587Y-4.726
X3.6657Y-1.022
X3.6672Y-6.7512
X3.6672Y-6.7905
X3.6673Y-4.1524
X3.6677Y-4.3083
X3.689Y-3.8504
X3.6917Y-7.1358
X3.6924Y-5.7697
X3.7008Y-4.8409
X3.702Y-4.726
X3.7065Y-6.7512
X3.7065Y-6.7905
X3.7091Y-1.022
X3.7236Y-3.6776
X3.7276Y-2.1063
X3.735Y-7.1358
X3.7362Y-2.224
X3.7441Y-4.8409
X3.7453Y-4.726
X3.7459Y-6.7512
X3.7459Y-6.7905
X3.7504Y-3.8315
X3.7524Y-1.022
X3.7534Y-5.8736
X3.7542Y-5.85
X3.7774Y-5.8496
X3.7783Y-7.1358
X3.7786Y-5.8732
X3.7874Y-4.8409
X3.7886Y-4.726
X3.7957Y-1.022
X3.8102Y-3.0945
X3.813Y-2.998
X3.8201Y-2.3327
X3.8201Y-2.4311
X3.8201Y-2.628
X3.8217Y-7.1358
X3.822Y-2.5315
X3.8246Y-6.7
X3.8256Y-6.7343
X3.8299Y-3.2047
X3.8307Y-4.8409
X3.8319Y-4.726
X3.839Y-1.022
X3.8575Y-2.811
X3.865Y-7.1358
X3.874Y-4.8409
X3.8752Y-4.726
X3.8811Y-3.687
X3.8811Y-3.802
X3.8823Y-1.022
X3.8937Y-2.922
X3.9083Y-7.1358
X3.9173Y-4.8409
X3.9224Y-2.9461
X3.9231Y-7.0956
X3.9256Y-1.022
X3.9467Y-5.6468
X3.9467Y-6.2393
X3.9516Y-7.1358
X3.9624Y-6.761
X3.9689Y-1.022
X3.9764Y-2.8953
X3.9937Y-6.2067
X3.9949Y-7.1358
X4.0097Y-6.0307
X4.0122Y-1.022
X4.0254Y-5.6685
X4.0268Y-2.3346
X4.0268Y-2.437
X4.0268Y-2.5315
X4.0268Y-2.626
X4.0382Y-7.1358
X4.0412Y-6.9677
X4.0412Y-7.0071
X4.0412Y-7.0464
X4.0523Y-3.3076
X4.0555Y-1.022
X4.0815Y-7.1358
X4.0988Y-1.022
X4.1028Y-2.2193
X4.1055Y-2.1063
X4.116Y-5.5641
X4.1248Y-7.1358
X4.1339Y-4.8409
X4.135Y-4.726
X4.1421Y-1.022
X4.1449Y-2.9547
X4.1627Y-4.1932
X4.165Y-3.8382
X4.1681Y-7.1358
X4.1772Y-4.8409
X4.1783Y-4.726
X4.1854Y-1.022
X4.1959Y-3.789
X4.2114Y-7.1358
X4.2118Y-2.8543
X4.2205Y-4.8409
X4.2217Y-4.726
X4.2287Y-1.022
X4.2323Y-2.2209
X4.238Y-6.9677
X4.238Y-7.0071
X4.238Y-7.0464
X4.2382Y-2.4315
X4.2394Y-2.1063
X4.2394Y-2.3327
X4.2413Y-2.6283
X4.2417Y-2.5295
X4.2424Y-3.7993
X4.2451Y-4.0547
X4.2547Y-7.1358
X4.2638Y-4.8409
X4.265Y-4.726
X4.2661Y-4.2445
X4.2709Y-3.4685
X4.272Y-1.022
X4.272Y-4.278
X4.2735Y-5.6449
X4.2787Y-3.185
X4.2827Y-2.9843
X4.2953Y-3.8386
X4.298Y-7.1358
X4.2988Y-3.4531
X4.2992Y-4.248
X4.3071Y-4.8409
X4.3083Y-4.726
X4.3089Y-5.9224
X4.3154Y-1.022
X4.3185Y-4.2732
X4.3228Y-3.9567
X4.3307Y-4.2165
X4.3413Y-7.1358
X4.3435Y-3.7831
X4.3443Y-6.0701
X4.3504Y-4.8409
X4.3516Y-4.726
X4.3587Y-1.022
X4.3701Y-4.1929
X4.3846Y-7.1358
X4.3937Y-4.8409
X4.3949Y-4.726
X4.402Y-1.022
X4.4035Y-4.2031
X4.4124Y-3.8283
X4.4152Y-6.8004
X4.4152Y-7.0267
X4.428Y-7.1358
X4.4283Y-4.1811
X4.437Y-4.8409
X4.4382Y-4.726
X4.4409Y-4.0866
X4.4453Y-1.022
X4.4498Y-4.1285
X4.4713Y-7.1358
X4.4752Y-1.2929
X4.4803Y-4.8409
X4.4815Y-4.0992
X4.4815Y-4.726
X4.4886Y-1.022
X4.4998Y-5.635
X4.5097Y-6.6291
X4.5136Y-6.8004
X4.5136Y-7.0267
X4.5146Y-7.1358
X4.5185Y-3.811
X4.5201Y-3.7661
X4.5236Y-4.8409
X4.5248Y-4.726
X4.5319Y-1.022
X4.5579Y-7.1358
X4.5669Y-4.8409
X4.5681Y-4.726
X4.5709Y-3.7402
X4.5752Y-1.022
X4.5878Y-4.2697
X4.5965Y-3.7181
X4.6012Y-7.1358
X4.6102Y-4.8409
X4.6114Y-4.726
X4.612Y-6.8004
X4.612Y-7.0267
X4.6185Y-1.022
X4.6278Y-6.1724
X4.6328Y-5.5189
X4.6416Y-6.6921
X4.6445Y-7.1358
X4.6535Y-4.8409
X4.6547Y-4.726
X4.6618Y-1.022
X4.665Y-6.1531
X4.6878Y-7.1358
X4.6908Y-6.6921
X4.6969Y-4.8409
X4.698Y-4.726
X4.7051Y-1.022
X4.7105Y-6.8004
X4.7105Y-7.0267
X4.7126Y-4.3339
X4.7311Y-7.1358
X4.74Y-6.6921
X4.7402Y-4.8409
X4.7413Y-4.726
X4.7484Y-1.022
X4.7577Y-5.6488
X4.7744Y-7.1358
X4.7835Y-4.8409
X4.7846Y-4.726
X4.7892Y-6.6921
X4.7917Y-1.022
X4.8089Y-6.8004
X4.8089Y-7.0267
X4.8177Y-7.1358
X4.8268Y-4.8409
X4.828Y-4.726
X4.835Y-1.022
X4.8384Y-6.4854
X4.8384Y-6.5346
X4.8384Y-6.5838
X4.8384Y-6.633
X4.8384Y-6.6921
X4.8424Y-6.2925
X4.8424Y-6.3437
X4.8424Y-6.3929
X4.8443Y-6.2433
X4.861Y-7.1358
X4.8701Y-4.8409
X4.8713Y-4.726
X4.8783Y-1.022
X4.8935Y-6.2413
X4.8935Y-6.2925
X4.8935Y-6.3437
X4.8984Y-4.1764
X4.9043Y-7.1358
X4.9134Y-4.8409
X4.9146Y-4.726
X4.9191Y-5.45
X4.9217Y-1.022
X4.9231Y-5.7571
X4.9447Y-6.2413
X4.9447Y-6.2925
X4.9447Y-6.3437
X4.9476Y-7.1358
X4.9567Y-4.8409
X4.9579Y-4.726
X4.965Y-1.022
X4.9909Y-7.1358
X4.9976Y-4.1758
X4.9979Y-5.45
X5.0Y-4.8409
X5.0012Y-4.726
X5.0083Y-1.022
X5.0343Y-7.1358
X5.0433Y-4.8409
X5.0445Y-4.726
X5.0516Y-1.022
X5.052Y-2.3303
X5.0555Y-2.2181
X5.0571Y-2.4283
X5.0585Y-2.1041
X5.063Y-2.5268
X5.0668Y-5.45
X5.0681Y-2.6256
X5.0776Y-7.1358
X5.0866Y-4.8409
X5.0878Y-4.726
X5.0949Y-1.022
X5.1209Y-7.1358
X5.1299Y-4.8409
X5.1311Y-4.726
X5.1382Y-1.022
X5.1642Y-7.1358
X5.1732Y-4.8409
X5.1744Y-4.726
X5.1815Y-1.022
X5.1844Y-2.1041
X5.1862Y-3.8406
X5.1868Y-5.5248
X5.1913Y-2.2264
X5.2075Y-7.1358
X5.2165Y-4.8409
X5.2177Y-4.726
X5.2248Y-1.022
X5.2508Y-7.1358
X5.2598Y-4.8409
X5.261Y-4.726
X5.2671Y-3.0923
X5.2681Y-1.022
X5.272Y-2.9961
X5.277Y-2.3305
X5.277Y-2.4289
X5.277Y-2.6258
X5.2789Y-2.5293
X5.2868Y-3.2026
X5.2941Y-7.1358
X5.3031Y-4.8409
X5.3043Y-4.726
X5.3114Y-1.022
X5.3144Y-2.8089
X5.3374Y-7.1358
X5.3438Y-3.328
X5.3465Y-4.8409
X5.3476Y-4.726
X5.3516Y-2.9157
X5.3547Y-1.022
X5.3807Y-2.9429
X5.3807Y-7.1358
X5.3833Y-3.8246
X5.3898Y-4.8409
X5.3909Y-4.726
X5.398Y-1.022
X5.424Y-7.1358
X5.4331Y-4.8409
X5.4343Y-4.726
X5.4346Y-2.8921
X5.4413Y-1.022
X5.4673Y-7.1358
X5.4837Y-2.3325
X5.4837Y-2.4348
X5.4837Y-2.5293
X5.4837Y-2.6238
X5.4846Y-1.022
X5.5106Y-7.1358
X5.528Y-1.022
X5.5319Y-5.6685
X5.5539Y-7.1358
X5.5571Y-2.2244
X5.5624Y-2.1041
X5.5713Y-1.022
X5.5972Y-7.1358
X5.5988Y-5.5724
X5.6018Y-2.9526
X5.6146Y-1.022
X5.6164Y-6.2519
X5.6168Y-6.322
X5.6406Y-7.1358
X5.6579Y-1.022
X5.6642Y-4.8646
X5.6687Y-2.8522
X5.6839Y-7.1358
X5.6858Y-2.2256
X5.6868Y-5.7669
X5.6909Y-2.3299
X5.6937Y-2.4287
X5.6941Y-4.726
X5.6961Y-2.528
X5.6963Y-2.1041
X5.698Y-2.6268
X5.7012Y-1.022
X5.7272Y-7.1358
X5.7356Y-3.1829
X5.7374Y-4.726
X5.7396Y-2.9821
X5.7398Y-5.7622
X5.7445Y-1.022
X5.7705Y-7.1358
X5.7807Y-4.726
X5.7878Y-1.022
X5.7961Y-3.5811
X5.824Y-4.726
X5.8311Y-1.022
X5.8673Y-4.726
X5.8744Y-1.022
X5.9106Y-4.726
X5.9177Y-1.022
X5.9358Y-3.6953
X5.9476Y-5.4563
X5.9539Y-4.726
X5.961Y-1.022
X5.9776Y-3.3784
X5.9791Y-3.502
X5.9846Y-4.1642
X5.9972Y-4.726
X6.0043Y-1.022
X6.0079Y-4.1417
X6.0106Y-5.1465
X6.0106Y-5.1898
X6.0106Y-5.2331
X6.0106Y-5.4496
X6.0106Y-5.4929
X6.0106Y-5.5362
X6.0106Y-5.5795
X6.0106Y-5.6228
X6.0106Y-5.6661
X6.0106Y-5.7094
X6.0106Y-5.7528
X6.0106Y-5.7961
X6.0106Y-5.8394
X6.0106Y-5.8827
X6.0106Y-5.926
X6.0106Y-6.1425
X6.0106Y-6.1858
X6.0106Y-6.2291
X6.0106Y-6.2724
X6.0106Y-6.3157
X6.0106Y-6.3591
X6.0106Y-6.4024
X6.0106Y-6.4457
X6.0106Y-6.489
X6.0106Y-6.5323
X6.0106Y-6.5756
X6.0106Y-6.8354
X6.0106Y-6.8787
X6.0354Y-3.2205
X6.0406Y-4.726
X6.0453Y-3.1744
X6.0476Y-1.022
X6.065Y-3.2335
X6.0839Y-4.726
X6.0858Y-1.8484
X6.0866Y-3.2087
X6.0909Y-1.022
X6.1249Y-4.4237
X6.1249Y-4.4926
X6.1249Y-4.5556
X6.1249Y-4.6206
X6.1249Y-4.6796
X6.1272Y-4.726
X6.1272Y-5.1472
X6.1272Y-5.1906
X6.1272Y-5.2339
X6.1272Y-5.4504
X6.1272Y-5.4937
X6.1272Y-5.537
X6.1272Y-5.5803
X6.1272Y-5.6236
X6.1272Y-5.6669
X6.1272Y-5.7102
X6.1272Y-5.7535
X6.1272Y-5.7969
X6.1272Y-5.8402
X6.1272Y-5.8835
X6.1272Y-5.9268
X6.1272Y-6.1433
X6.1272Y-6.1866
X6.1272Y-6.2299
X6.1272Y-6.2732
X6.1272Y-6.3165
X6.1272Y-6.3598
X6.1272Y-6.4031
X6.1272Y-6.4465
X6.1272Y-6.4898
X6.1272Y-6.5331
X6.1272Y-6.5764
X6.1272Y-6.8362
X6.1272Y-6.8795
X6.1343Y-1.022
X6.1347Y-3.3706
X6.1347Y-3.4591
X6.1347Y-3.5576
X6.135Y-3.6263
X6.1446Y-3.715
X6.1446Y-3.7544
X6.1705Y-4.726
X6.1776Y-1.022
X6.1783Y-1.8386
X6.1839Y-3.715
X6.1839Y-3.7544
X6.2138Y-4.726
X6.2209Y-1.022
X6.2571Y-4.726
X6.2642Y-1.022
X6.2784Y-4.6855
X6.3004Y-4.726
X6.3075Y-1.022
X6.3409Y-4.876
X6.3437Y-4.726
X6.3502Y-6.6941
X6.3508Y-1.022
X6.3513Y-3.3706
X6.3513Y-3.4099
X6.3513Y-3.4493
X6.3513Y-3.4887
X6.3513Y-3.528
X6.3513Y-3.5674
X6.3513Y-3.6068
X6.3513Y-3.6461
X6.3513Y-3.6855
X6.362Y-6.3476
X6.376Y-4.8567
X6.3768Y-7.1378
X6.3906Y-3.3706
X6.3906Y-3.4099
X6.3906Y-3.4493
X6.3906Y-3.4887
X6.3906Y-3.528
X6.3906Y-3.5674
X6.3906Y-3.6068
X6.3906Y-3.6461
X6.3906Y-3.6855
X6.3941Y-1.022
X6.4016Y-5.5972
X6.4035Y-5.6976
X6.4102Y-3.0752
X6.4152Y-6.263
X6.4152Y-6.4145
X6.4201Y-7.1378
X6.4202Y-4.5812
X6.4248Y-3.015
X6.4291Y-3.0472
X6.4374Y-1.022
X6.4447Y-6.1606
X6.4467Y-6.0582
X6.4567Y-3.0119
X6.4609Y-1.4353
X6.4634Y-7.1378
X6.4694Y-4.2367
X6.4694Y-4.2761
X6.4792Y-4.6993
X6.4807Y-1.022
X6.4821Y-6.2295
X6.4891Y-4.6304
X6.4972Y-3.2622
X6.5067Y-7.1378
X6.5087Y-4.2367
X6.5087Y-4.2761
X6.5203Y-1.2091
X6.5238Y-1.4292
X6.524Y-1.022
X6.5305Y-3.2675
X6.5481Y-4.2367
X6.5481Y-4.2761
X6.55Y-7.1378
X6.5609Y-6.263
X6.5673Y-1.022
X6.5687Y-6.4677
X6.5776Y-4.6304
X6.5866Y-3.1102
X6.5875Y-3.6658
X6.5875Y-4.2367
X6.5875Y-4.2761
X6.5933Y-7.1378
X6.5945Y-3.2205
X6.6024Y-4.8409
X6.6035Y-4.726
X6.6106Y-1.022
X6.6142Y-3.7205
X6.618Y-6.2787
X6.6181Y-3.1772
X6.6212Y-2.937
X6.622Y-3.0787
X6.626Y-3.1185
X6.6295Y-4.6335
X6.6299Y-4.0591
X6.6307Y-2.7055
X6.6331Y-2.3236
X6.635Y-1.8118
X6.6366Y-7.1378
X6.6367Y-3.4843
X6.6367Y-3.5674
X6.6374Y-3.2642
X6.6378Y-3.4252
X6.639Y-2.737
X6.6421Y-5.5803
X6.6435Y-5.5425
X6.6449Y-4.0299
X6.6457Y-3.7161
X6.6457Y-4.8409
X6.6465Y-4.3745
X6.6465Y-4.4139
X6.6469Y-4.726
X6.6496Y-3.9004
X6.6496Y-3.9331
X6.6539Y-1.022
X6.6571Y-2.8957
X6.6573Y-6.3476
X6.6606Y-2.3402
X6.6626Y-2.5992
X6.6632Y-6.696
X6.678Y-2.5705
X6.6799Y-7.1378
X6.68Y-3.3918
X6.6803Y-4.6327
X6.6859Y-4.3351
X6.6859Y-4.3745
X6.6859Y-4.4139
X6.689Y-4.8409
X6.6902Y-4.726
X6.6972Y-1.022
X6.7118Y-3.3937
X6.7217Y-1.9606
X6.7217Y-2.55
X6.7217Y-2.8748
X6.7232Y-7.1378
X6.7253Y-4.3351
X6.7253Y-4.3745
X6.7253Y-4.4139
X6.7323Y-4.8409
X6.7335Y-4.726
X6.7406Y-1.022
X6.7484Y-4.2866
X6.7616Y-4.2241
X6.7616Y-4.2576
X6.7665Y-7.1378
X6.7756Y-4.8409
X6.7768Y-4.726
X6.7823Y-4.1984
X6.7828Y-4.295
X6.7828Y-4.3284
X6.7831Y-3.8287
X6.7839Y-1.022
X6.7882Y-3.7736
X6.8004Y-2.9142
X6.8031Y-3.8031
X6.8071Y-3.8504
X6.8075Y-4.2005
X6.8079Y-4.3524
X6.8091Y-2.8465
X6.8094Y-2.7795
X6.8098Y-3.0122
X6.8098Y-7.1378
X6.8102Y-2.4101
X6.8102Y-2.6626
X6.811Y-2.4744
X6.8114Y-2.3393
X6.8114Y-3.1803
X6.8118Y-2.5991
X6.8122Y-4.2756
X6.8126Y-3.8827
X6.8189Y-4.8409
X6.8201Y-4.726
X6.8272Y-1.022
X6.8398Y-1.8906
X6.8398Y-1.9299
X6.8398Y-1.9693
X6.8398Y-2.0087
X6.8531Y-7.1378
X6.8622Y-4.8409
X6.8634Y-4.726
X6.8705Y-1.022
X6.8791Y-1.8906
X6.8791Y-1.9299
X6.8791Y-1.9693
X6.8791Y-2.0087
X6.8965Y-7.1378
X6.9055Y-4.8409
X6.9067Y-4.726
X6.9138Y-1.022
X6.9315Y-2.4102
X6.9319Y-4.4889
X6.9323Y-2.6701
X6.9327Y-4.418
X6.9331Y-4.5597
X6.9339Y-2.4795
X6.9339Y-2.5992
X6.9339Y-2.7173
X6.9343Y-4.2008
X6.9349Y-6.6685
X6.935Y-2.5291
X6.937Y-3.7756
X6.937Y-3.8268
X6.937Y-3.876
X6.939Y-4.2763
X6.9394Y-3.9094
X6.9398Y-7.1378
X6.9402Y-4.3567
X6.9409Y-3.1654
X6.9421Y-3.3232
X6.9425Y-4.6346
X6.9441Y-2.3098
X6.9453Y-2.202
X6.9472Y-2.2839
X6.948Y-2.2441
X6.9488Y-4.8409
X6.95Y-3.0925
X6.95Y-4.726
X6.9508Y-2.3429
X6.9508Y-4.6638
X6.9571Y-1.022
X6.9579Y-4.1051
X6.9628Y-2.6181
X6.9628Y-2.651
X6.9638Y-2.9957
X6.9661Y-3.1449
X6.9673Y-6.6654
X6.9693Y-2.2177
X6.9697Y-2.3094
X6.9701Y-2.2638
X6.9704Y-2.5472
X6.9704Y-2.5801
X6.9719Y-3.2333
X6.974Y-4.676
X6.9776Y-2.4288
X6.9776Y-2.4623
X6.9776Y-3.298
X6.9831Y-7.1378
X6.9843Y-3.1012
X6.9921Y-4.8409
X6.9933Y-3.4811
X6.9933Y-4.726
X6.9941Y-3.402
X6.9969Y-3.3673
X6.998Y-2.528
X6.998Y-3.0014
X7.0004Y-1.022
X7.0018Y-6.7512
X7.002Y-2.0972
X7.002Y-2.1366
X7.002Y-2.176
X7.002Y-2.3561
X7.002Y-2.3896
X7.0031Y-2.324
X7.011Y-2.4201
X7.0122Y-2.5996
X7.0264Y-7.1378
X7.0354Y-4.8409
X7.0366Y-4.726
X7.0437Y-1.022
X7.0457Y-2.2366
X7.0492Y-2.7844
X7.0533Y-3.7232
X7.0563Y-2.0972
X7.0563Y-2.1366
X7.0631Y-2.2096
X7.0693Y-3.6953
X7.0697Y-7.1378
X7.0787Y-4.8409
X7.0799Y-4.726
X7.087Y-1.022
X7.0886Y-2.5008
X7.0894Y-3.2524
X7.0945Y-3.2189
X7.096Y-2.2096
X7.113Y-7.1378
X7.122Y-2.9181
X7.122Y-3.2638
X7.122Y-4.8409
X7.1228Y-2.8697
X7.1232Y-4.726
X7.126Y-2.2335
X7.1303Y-1.022
X7.1339Y-3.3904
X7.1343Y-4.5007
X7.1346Y-4.4298
X7.135Y-3.2075
X7.1358Y-3.1306
X7.136Y-3.0333
X7.1362Y-4.5715
X7.1375Y-4.2083
X7.1563Y-7.1378
X7.1654Y-4.8409
X7.1665Y-4.726
X7.1736Y-1.022
X7.1744Y-1.9299
X7.1744Y-1.9693
X7.1744Y-2.0087
X7.1992Y-6.5567
X7.1996Y-7.1378
X7.2087Y-4.8409
X7.2098Y-4.726
X7.2169Y-1.022
X7.2223Y-5.7197
X7.2429Y-7.1378
X7.2504Y-4.1463
X7.252Y-4.8409
X7.2531Y-4.726
X7.2543Y-3.5794
X7.2547Y-4.3589
X7.2551Y-4.2843
X7.2559Y-3.5085
X7.2567Y-2.5299
X7.2575Y-2.4933
X7.2602Y-1.022
X7.261Y-3.3937
X7.2618Y-2.9205
X7.2634Y-2.3965
X7.2654Y-2.3512
X7.2669Y-2.6831
X7.2677Y-2.7343
X7.2681Y-2.7992
X7.2701Y-2.8705
X7.2728Y-1.9126
X7.2819Y-2.6098
X7.2862Y-7.1378
X7.2953Y-4.8409
X7.2965Y-4.726
X7.2996Y-3.6717
X7.2997Y-1.8936
X7.3024Y-3.0028
X7.3035Y-1.022
X7.3064Y-3.7046
X7.3083Y-3.3866
X7.3083Y-3.9358
X7.3224Y-4.024
X7.324Y-3.3452
X7.3272Y-3.4142
X7.3295Y-7.1378
X7.3319Y-3.9102
X7.3319Y-4.0559
X7.3326Y-1.8936
X7.3358Y-3.863
X7.3386Y-4.8409
X7.3398Y-4.726
X7.3413Y-4.1476
X7.3417Y-4.115
X7.3469Y-1.022
X7.3491Y-3.8251
X7.3492Y-4.0827
X7.3516Y-2.048
X7.3516Y-2.0874
X7.3516Y-2.1268
X7.3516Y-2.1661
X7.3516Y-2.2055
X7.3516Y-2.2449
X7.3516Y-3.3622
X7.363Y-1.9106
X7.3677Y-3.865
X7.3728Y-7.1378
X7.3791Y-2.8394
X7.3807Y-3.8224
X7.3819Y-4.8409
X7.3831Y-4.726
X7.3902Y-1.022
X7.3909Y-2.1268
X7.3909Y-2.1661
X7.3909Y-2.2055
X7.4161Y-7.1378
X7.4252Y-4.8409
X7.4264Y-4.726
X7.4335Y-1.022
X7.4594Y-7.1378
X7.4685Y-4.8409
X7.4697Y-4.726
X7.4768Y-1.022
X7.4902Y-3.3626
X7.5028Y-7.1378
X7.5118Y-4.8409
X7.513Y-4.726
X7.5169Y-3.3394
X7.5201Y-1.022
X7.5209Y-3.3787
X7.5366Y-2.4339
X7.5461Y-7.1378
X7.5551Y-3.3831
X7.5551Y-4.8409
X7.5563Y-4.726
X7.5634Y-1.022
X7.5799Y-4.0441
X7.5839Y-3.8157
X7.5894Y-7.1378
X7.5984Y-4.8409
X7.5996Y-4.726
X7.6067Y-1.022
X7.6272Y-1.9024
X7.6327Y-7.1378
X7.6417Y-4.8409
X7.6429Y-4.726
X7.65Y-1.022
X7.676Y-7.1378
X7.685Y-4.8409
X7.6862Y-4.726
X7.6929Y-4.6594
X7.6933Y-1.022
X7.7193Y-7.1378
X7.7283Y-4.8409
X7.7295Y-4.726
X7.7366Y-1.022
X7.7626Y-7.1378
X7.7717Y-4.8409
X7.7728Y-4.726
X7.7799Y-1.022
X7.7953Y-2.589
X7.8059Y-7.1378
X7.8091Y-1.9039
X7.815Y-4.8409
X7.8161Y-2.1583
X7.8161Y-4.726
X7.8232Y-1.022
X7.8483Y-5.6606
X7.8492Y-7.1378
X7.8536Y-1.9041
X7.8583Y-4.8409
X7.8594Y-4.726
X7.8665Y-1.022
X7.8791Y-4.4142
X7.8865Y-1.9041
X7.8921Y-1.6433
X7.8925Y-7.1378
X7.8988Y-4.615
X7.9016Y-4.8409
X7.9028Y-4.726
X7.9098Y-1.022
X7.919Y-1.6244
X7.9268Y-1.9039
X7.9272Y-2.4531
X7.9287Y-2.3039
X7.9358Y-7.1378
X7.9519Y-1.6244
X7.9531Y-1.022
X7.978Y-1.6445
X7.9791Y-7.1378
X7.9965Y-1.022
X8.0051Y-4.0559
X8.0224Y-7.1378
X8.0398Y-1.022
X8.0657Y-7.1378
X8.0727Y-5.2433
X8.0831Y-1.022
X8.1091Y-7.1378
X8.1181Y-4.8409
X8.1193Y-4.726
X8.1207Y-3.3255
X8.1232Y-4.3945
X8.1264Y-1.022
X8.1524Y-7.1378
X8.1614Y-4.8409
X8.1626Y-4.726
X8.1697Y-1.022
X8.1957Y-7.1378
X8.2047Y-4.8409
X8.2059Y-4.726
X8.213Y-1.022
X8.239Y-7.1378
X8.248Y-4.8409
X8.2492Y-4.726
X8.2563Y-1.022
X8.2823Y-7.1378
X8.2913Y-4.8409
X8.2925Y-4.726
X8.2996Y-1.022
X8.3161Y-4.0087
X8.3256Y-7.1378
X8.3346Y-4.8409
X8.3358Y-4.726
X8.3402Y-2.5476
X8.3429Y-1.022
X8.3689Y-7.1378
X8.3713Y-3.8
X8.3752Y-1.922
X8.378Y-4.8409
X8.3791Y-1.1323
X8.3791Y-4.726
X8.3799Y-1.7091
X8.3839Y-2.0323
X8.3862Y-1.022
X8.3917Y-1.0787
X8.3925Y-1.1043
X8.3941Y-1.1713
X8.3988Y-2.9693
X8.4094Y-1.7244
X8.4122Y-7.1378
X8.4134Y-1.1969
X8.4213Y-4.8409
X8.4224Y-4.726
X8.4295Y-1.022
X8.4378Y-6.3217
X8.4555Y-7.1378
X8.4646Y-4.8409
X8.4657Y-4.726
X8.4728Y-1.022
X8.4742Y-5.6527
X8.4803Y-1.0906
X8.4803Y-1.122
X8.4988Y-7.1378
X8.5039Y-6.337
X8.5079Y-4.8409
X8.5091Y-4.726
X8.5157Y-1.1063
X8.5161Y-1.022
X8.5372Y-6.6449
X8.5421Y-7.1378
X8.5512Y-4.8409
X8.552Y-3.9173
X8.5524Y-4.726
X8.5553Y-1.899
X8.5594Y-1.022
X8.5811Y-3.9697
X8.5819Y-3.9378
X8.5854Y-7.1378
X8.5925Y-1.7272
X8.5945Y-4.8409
X8.5957Y-4.726
X8.5965Y-1.7791
X8.6028Y-1.022
X8.6114Y-3.8984
X8.6118Y-3.8661
X8.6198Y-1.7492
X8.6287Y-7.1378
X8.6378Y-4.8409
X8.639Y-4.726
X8.6461Y-1.022
X8.6472Y-3.9185
X8.6504Y-1.7858
X8.661Y-1.7453
X8.672Y-7.1378
X8.6811Y-4.8409
X8.6823Y-4.726
X8.6868Y-6.3338
X8.6894Y-1.022
X8.6929Y-1.7567
X8.7154Y-7.1378
X8.7244Y-4.8409
X8.7256Y-4.726
X8.7327Y-1.022
X8.7567Y-2.926
X8.7587Y-7.1378
X8.7598Y-1.9323
X8.7677Y-4.8409
X8.7689Y-3.8031
X8.7689Y-4.726
X8.776Y-1.022
X8.7965Y-4.3079
X8.802Y-7.1378
X8.811Y-4.8409
X8.8122Y-1.7795
X8.8122Y-4.726
X8.8193Y-1.022
X8.8295Y-1.7563
X8.8453Y-7.1378
X8.8504Y-1.9646
X8.8504Y-1.9961
X8.8543Y-4.8409
X8.8555Y-4.726
X8.8626Y-1.022
X8.8886Y-7.1378
X8.8976Y-4.8409
X8.8988Y-4.726
X8.9028Y-2.5323
X8.9055Y-1.9646
X8.9055Y-1.9961
X8.9059Y-1.022
X8.9083Y-3.735
X8.9319Y-7.1378
X8.9409Y-4.8409
X8.9421Y-4.726
X8.948Y-2.8059
X8.9492Y-1.022
X8.9512Y-1.77
X8.9752Y-7.1378
X8.9803Y-2.7992
X8.9843Y-4.8409
X8.9854Y-4.726
X8.9925Y-1.022
X9.015Y-2.8055
X9.0173Y-3.7346
X9.0185Y-7.1378
X9.0276Y-4.8409
X9.0287Y-4.726
X9.0358Y-1.022
X9.0433Y-1.2087
X9.0453Y-1.2421
X9.0472Y-2.1701
X9.0512Y-2.7992
X9.0618Y-7.1378
X9.0709Y-4.8409
X9.072Y-4.726
X9.0791Y-1.022
X9.0827Y-1.1732
X9.0829Y-1.4966
X9.0839Y-2.7988
X9.0984Y-1.1433
X9.1043Y-2.0571
X9.1051Y-7.1378
X9.1142Y-4.8409
X9.1154Y-3.7449
X9.1154Y-4.726
X9.1193Y-3.2449
X9.122Y-2.0866
X9.1224Y-1.022
X9.1339Y-2.126
X9.1366Y-2.1583
X9.1378Y-1.4886
X9.1475Y-6.1173
X9.1484Y-7.1378
X9.1575Y-4.8409
X9.1587Y-4.726
X9.1657Y-1.022
X9.1917Y-7.1378
X9.1929Y-1.4886
X9.2091Y-1.022
X9.235Y-7.1378
X9.248Y-1.4886
X9.2524Y-1.022
X9.2563Y-1.3303
X9.2783Y-7.1378
X9.2791Y-2.328
X9.2795Y-2.3613
X9.2803Y-2.398
X9.2957Y-1.022
X9.3043Y-2.6661
X9.305Y-6.4874
X9.3217Y-7.1378
X9.3224Y-1.9732
X9.339Y-1.022
X9.3398Y-3.9535
X9.3476Y-2.1346
X9.3484Y-1.9157
X9.3728Y-4.8587
X9.3752Y-4.726
X9.3823Y-1.022
X9.4185Y-4.726
X9.4256Y-1.022
X9.4409Y-3.4579
X9.4409Y-3.5012
X9.4409Y-3.5445
X9.4409Y-3.5878
X9.4409Y-3.6311
X9.4409Y-3.6744
X9.4409Y-3.7177
X9.4409Y-3.761
X9.4409Y-3.8043
X9.4409Y-3.8476
X9.4409Y-3.8909
X9.4409Y-3.9343
X9.4409Y-3.9776
X9.4409Y-4.0209
X9.4409Y-4.0642
X9.4409Y-4.1075
X9.4409Y-4.1508
X9.4409Y-4.2807
X9.4409Y-4.324
X9.4409Y-4.3673
X9.4409Y-4.4106
X9.4409Y-4.4539
X9.4409Y-4.4972
X9.4409Y-4.5406
X9.4409Y-4.5839
X9.4409Y-4.6272
X9.4409Y-4.6705
X9.4677Y-3.4264
X9.4689Y-1.022
X9.5122Y-1.022
X9.5209Y-3.4264
X9.5382Y-1.0492
X9.5382Y-1.0925
X9.5382Y-1.1358
X9.5382Y-1.1791
X9.5382Y-1.2224
X9.5382Y-1.2657
X9.5382Y-1.3091
X9.5382Y-1.3524
X9.5382Y-1.3957
X9.5382Y-1.439
X9.5382Y-1.4823
X9.5382Y-1.5256
X9.5382Y-1.5689
X9.5382Y-1.6122
X9.5382Y-1.6555
X9.5382Y-1.6988
X9.5382Y-1.7421
X9.5382Y-1.7854
X9.5382Y-1.8287
X9.5382Y-1.872
X9.5382Y-1.9154
X9.5382Y-1.9587
X9.5382Y-2.002
X9.5382Y-2.0453
X9.5382Y-2.0886
X9.5382Y-2.1319
X9.5382Y-2.1752
X9.5382Y-2.2185
X9.5382Y-2.2618
X9.5382Y-2.3051
X9.5382Y-2.3484
X9.5382Y-2.3917
X9.5382Y-2.435
X9.5382Y-2.4783
X9.5382Y-2.5217
X9.5382Y-2.565
X9.5382Y-2.6083
X9.5382Y-2.6516
X9.5382Y-2.6949
X9.5382Y-2.7382
X9.5382Y-2.7815
X9.5382Y-2.8248
X9.5382Y-2.8681
X9.5382Y-2.9114
X9.5382Y-2.9547
X9.5382Y-2.998
X9.5382Y-3.0413
X9.5382Y-3.0846
X9.5382Y-3.128
X9.5382Y-3.1713
X9.5382Y-3.2146
X9.5382Y-3.2579
X9.5382Y-3.3012
X9.5382Y-3.3445
X9.5382Y-3.3878
X9.5421Y-5.1378
X9.5421Y-5.1811
X9.5421Y-5.2244
X9.5421Y-5.2677
X9.5421Y-5.311
X9.5421Y-5.3543
X9.5421Y-5.3976
X9.5421Y-5.4409
X9.5421Y-5.4843
X9.5421Y-5.5276
X9.5421Y-5.5709
X9.5421Y-5.6142
X9.5421Y-5.6575
X9.5421Y-5.7008
X9.5421Y-5.7441
X9.5421Y-5.7874
X9.5421Y-5.8307
X9.5421Y-5.874
X9.5421Y-5.9173
X9.5421Y-5.9606
X9.5421Y-6.0039
X9.5421Y-6.0472
X9.5421Y-6.0906
X9.5421Y-6.1339
X9.5421Y-6.1772
X9.5421Y-6.2205
X9.5421Y-6.2638
X9.5421Y-6.3071
X9.5421Y-6.3504
X9.5421Y-6.3937
X9.5421Y-6.437
X9.5421Y-6.4803
X9.5421Y-6.5236
X9.5421Y-6.5669
X9.5421Y-6.6102
X9.5421Y-6.6535
X9.5421Y-6.6969
X9.5421Y-6.7402
X9.5421Y-6.7835
X9.5421Y-6.8268
X9.5421Y-6.8701
X9.5421Y-6.9134
T2
X3.3148Y-5.7291
X3.3148Y-5.7748
X3.3148Y-5.8204
X3.3516Y-5.6941
X3.3516Y-5.7291
X3.3516Y-5.7748
X3.3516Y-5.8204
X3.3516Y-5.8555
X3.4Y-5.6941
X3.4Y-5.7291
X3.4Y-5.7748
X3.4Y-5.8204
X3.4Y-5.8555
X3.4368Y-5.7291
X3.4368Y-5.7748
X3.4368Y-5.8204
X6.3833Y-4.3828
X6.3833Y-4.4277
X6.3833Y-4.4726
X6.4089Y-4.3604
X6.4089Y-4.4052
X6.4089Y-4.4501
X6.4089Y-4.495
X6.4345Y-4.3828
X6.4345Y-4.4277
X6.4345Y-4.4726
T4
X1.8079Y-5.0701
X1.8079Y-6.9598
X1.8451Y-4.9803
X1.8451Y-5.1598
X1.8451Y-6.87
X1.8451Y-7.0496
X1.9349Y-4.9431
X1.9349Y-5.197
X1.9349Y-6.8328
X1.9349Y-7.0868
X2.0247Y-4.9803
X2.0247Y-5.1598
X2.0247Y-6.87
X2.0247Y-7.0496
X2.0618Y-5.0701
X2.0618Y-6.9598
X5.7055Y-5.0701
X5.7055Y-6.9598
X5.7427Y-4.9803
X5.7427Y-5.1598
X5.7427Y-6.87
X5.7427Y-7.0496
X5.8325Y-4.9431
X5.8325Y-5.197
X5.8325Y-6.8328
X5.8325Y-7.0868
X5.9223Y-4.9803
X5.9223Y-5.1598
X5.9223Y-6.87
X5.9223Y-7.0496
X5.9595Y-5.0701
X5.9595Y-6.9598
X6.178Y-5.0701
X6.178Y-6.9598
X6.2152Y-4.9803
X6.2152Y-5.1598
X6.2152Y-6.87
X6.2152Y-7.0496
X6.305Y-4.9431
X6.305Y-5.197
X6.305Y-6.8328
X6.305Y-7.0868
X6.3947Y-4.9803
X6.3947Y-5.1598
X6.3947Y-6.87
X6.3947Y-7.0496
X6.4319Y-5.0701
X6.4319Y-6.9598
X9.2234Y-5.0701
X9.2234Y-6.9488
X9.2606Y-4.9803
X9.2606Y-5.1598
X9.2606Y-6.859
X9.2606Y-7.0386
X9.3504Y-4.9431
X9.3504Y-5.197
X9.3504Y-6.8219
X9.3504Y-7.0758
X9.4402Y-4.9803
X9.4402Y-5.1598
X9.4402Y-6.859
X9.4402Y-7.0386
X9.4774Y-5.0701
X9.4774Y-6.9488
T5
X7.0181Y-1.7195
X7.0685Y-1.8195
X7.1181Y-1.7195
X7.1685Y-1.8195
X7.2181Y-1.7195
X7.2685Y-1.8195
X7.3181Y-1.7195
X7.3685Y-1.8195
X7.4181Y-1.7195
X7.4685Y-1.8195
X7.7858Y-1.7195
X7.8362Y-1.8195
X7.8858Y-1.7195
X7.9362Y-1.8195
X7.9858Y-1.7195
X8.0362Y-1.8195
X8.0858Y-1.7195
X8.1362Y-1.8195
X8.1858Y-1.7195
X8.2362Y-1.8195
T6
X5.805Y-5.6134
X5.805Y-5.7118
X5.805Y-5.8102
X5.805Y-5.9086
X5.805Y-6.0071
X6.1449Y-2.1988
X6.1449Y-2.2972
X6.1449Y-2.3957
X6.1449Y-2.4941
X6.1449Y-2.5925
X6.2392Y-1.2181
X6.2392Y-1.3165
X6.2392Y-1.415
X6.2392Y-1.5134
X6.2392Y-1.6118
X6.3483Y-5.4519
X6.3483Y-5.5504
X6.3483Y-5.6488
X6.3483Y-5.7472
X6.3483Y-5.8456
X6.4598Y-2.2972
X6.4598Y-2.3957
X6.4598Y-2.4941
X6.4598Y-2.5925
X6.7528Y-1.3992
X6.7528Y-1.4976
X6.7528Y-1.5961
X6.7528Y-1.6945
T7
X1.8512Y-5.4578
X1.8512Y-5.5563
X1.9026Y-1.1795
X1.9026Y-1.2795
X1.9026Y-1.3795
X1.961Y-1.6533
X1.961Y-1.7533
X1.961Y-1.8533
X1.961Y-1.9533
X1.961Y-2.0533
X1.961Y-2.1533
X1.961Y-2.6533
X1.961Y-2.7533
X1.961Y-2.8533
X1.961Y-2.9533
X1.961Y-3.0533
X1.961Y-3.1533
X1.961Y-3.2533
X1.961Y-3.3533
X1.961Y-3.4533
X2.0026Y-1.1795
X2.0026Y-1.2795
X2.0026Y-1.3795
X2.111Y-1.6533
X2.111Y-1.7533
X2.211Y-1.6533
X2.211Y-1.7533
X2.3379Y-4.0453
X2.3379Y-4.4783
X2.411Y-1.6533
X2.411Y-1.7533
X2.511Y-1.6533
X2.511Y-1.7533
X2.5347Y-4.0453
X2.5347Y-4.4783
X2.6524Y-6.8481
X2.6524Y-6.9481
X2.6928Y-6.2984
X2.711Y-1.6533
X2.711Y-1.7533
X2.7524Y-6.8481
X2.7524Y-6.9481
X2.8012Y-3.8693
X2.8016Y-3.7012
X2.811Y-1.6533
X2.811Y-1.7533
X2.8524Y-6.8481
X2.8524Y-6.9481
X2.8896Y-6.2984
X2.9012Y-3.8693
X2.9016Y-3.7012
X2.9524Y-6.8481
X2.9524Y-6.9481
X2.961Y-1.6533
X2.961Y-1.7533
X2.961Y-1.8533
X2.961Y-1.9533
X2.961Y-2.0533
X2.961Y-2.1533
X2.961Y-3.0533
X2.961Y-3.1533
X2.961Y-3.2533
X2.961Y-3.3533
X2.961Y-3.4533
X3.0012Y-3.8693
X3.0016Y-3.7012
X3.2813Y-1.174
X3.2813Y-1.274
X3.2813Y-1.374
X3.3813Y-1.174
X3.3813Y-1.274
X3.3813Y-1.374
X3.3916Y-6.53
X3.3916Y-6.7268
X3.4209Y-1.6573
X3.4209Y-1.7573
X3.4209Y-1.8573
X3.4209Y-1.9573
X3.4209Y-2.0573
X3.4209Y-2.1573
X3.4209Y-2.6573
X3.4209Y-2.7573
X3.4209Y-2.8573
X3.4209Y-2.9573
X3.4209Y-3.0573
X3.4209Y-3.1573
X3.4209Y-3.2573
X3.4209Y-3.3573
X3.4209Y-3.4573
X3.5709Y-1.6573
X3.5709Y-1.7573
X3.6709Y-1.6573
X3.6709Y-1.7573
X3.7977Y-4.0492
X3.7977Y-4.4823
X3.8709Y-1.6573
X3.8709Y-1.7573
X3.9709Y-1.6573
X3.9709Y-1.7573
X3.9946Y-4.0492
X3.9946Y-4.4823
X4.1396Y-6.8154
X4.1396Y-7.0123
X4.1709Y-1.6573
X4.1709Y-1.7573
X4.1813Y-5.7551
X4.2709Y-1.6573
X4.2709Y-1.7573
X4.2813Y-5.7551
X4.4209Y-1.6573
X4.4209Y-1.7573
X4.4209Y-1.8573
X4.4209Y-1.9573
X4.4209Y-2.0573
X4.4209Y-2.1573
X4.4209Y-3.0573
X4.4209Y-3.1573
X4.4209Y-3.2573
X4.4209Y-3.3573
X4.4209Y-3.4573
X4.4278Y-5.7767
X4.4278Y-5.8767
X4.5278Y-5.7767
X4.5278Y-5.8767
X4.6278Y-5.7767
X4.6278Y-5.8767
X4.7278Y-5.7767
X4.7278Y-5.8767
X4.8041Y-1.2189
X4.8041Y-1.3189
X4.8041Y-1.4189
X4.8278Y-5.7767
X4.8278Y-5.8767
X4.8778Y-1.6551
X4.8778Y-1.7551
X4.8778Y-1.8551
X4.8778Y-1.9551
X4.8778Y-2.0551
X4.8778Y-2.1551
X4.8778Y-2.6551
X4.8778Y-2.7551
X4.8778Y-2.8551
X4.8778Y-2.9551
X4.8778Y-3.0551
X4.8778Y-3.1551
X4.8778Y-3.2551
X4.8778Y-3.3551
X4.8778Y-3.4551
X4.9041Y-1.2189
X4.9041Y-1.3189
X4.9041Y-1.4189
X5.0278Y-1.6551
X5.0278Y-1.7551
X5.1278Y-1.6551
X5.1278Y-1.7551
X5.2546Y-4.047
X5.2546Y-4.4801
X5.3278Y-1.6551
X5.3278Y-1.7551
X5.4278Y-1.6551
X5.4278Y-1.7551
X5.4515Y-4.047
X5.4515Y-4.4801
X5.6278Y-1.6551
X5.6278Y-1.7551
X5.7278Y-1.6551
X5.7278Y-1.7551
X5.8778Y-1.6551
X5.8778Y-1.7551
X5.8778Y-1.8551
X5.8778Y-1.9551
X5.8778Y-2.0551
X5.8778Y-2.1551
X5.8778Y-3.0551
X5.8778Y-3.1551
X5.8778Y-3.2551
X5.8778Y-3.3551
X5.8778Y-3.4551
X5.8854Y-4.3846
X5.8854Y-4.5815
X5.9589Y-3.7957
X6.0589Y-3.7957
X6.6311Y-1.1614
X6.7295Y-1.1614
X7.1018Y-6.2681
X7.2018Y-6.2681
X7.3018Y-6.2681
X7.4018Y-6.2681
X7.5018Y-5.4681
X7.5018Y-6.2681
X7.6018Y-5.4681
X7.6018Y-6.2681
X7.7018Y-5.4681
X7.7018Y-6.2681
X7.8018Y-5.4681
X7.8018Y-6.2681
X7.9018Y-5.4681
X7.9018Y-6.2681
X8.0018Y-5.4681
X8.0018Y-6.2681
X8.1018Y-5.4681
X8.1018Y-6.2681
X8.2018Y-5.4681
X8.2018Y-6.2681
X8.3018Y-5.4681
X8.3018Y-6.2681
X8.4018Y-5.4681
X8.4018Y-6.2681
X8.5018Y-5.4681
X8.5018Y-6.2681
X8.5917Y-1.2951
X8.5917Y-1.6165
X8.6018Y-5.4681
X8.6018Y-6.2681
X8.6902Y-1.2951
X8.6902Y-1.6165
X8.7689Y-1.2951
X8.7689Y-1.6165
X8.8673Y-1.2951
X8.8673Y-1.6165
X9.1772Y-1.122
X9.1772Y-1.222
X9.1772Y-1.322
X9.3675Y-1.1067
X9.3675Y-1.2067
X9.3675Y-1.3067
X9.3675Y-1.4067
X9.3675Y-1.5067
X9.3675Y-1.6067
X9.3675Y-1.7067
X9.3675Y-1.8067
X9.3713Y-2.2616
X9.3713Y-2.3616
X9.3713Y-2.4616
X9.3713Y-2.5616
X9.3713Y-2.6616
X9.4675Y-1.1067
X9.4675Y-1.2067
X9.4675Y-1.3067
X9.4675Y-1.4067
X9.4675Y-1.5067
X9.4675Y-1.6067
X9.4675Y-1.7067
X9.4675Y-1.8067
T8
X6.8395Y-5.0211
X6.8395Y-6.9211
X6.9395Y-5.0211
X6.9395Y-6.9211
X7.0395Y-5.0211
X7.0395Y-6.9211
X7.1395Y-5.0211
X7.1395Y-6.9211
X7.2395Y-5.0211
X7.2395Y-6.9211
X7.3395Y-5.0211
X7.3395Y-6.9211
X7.4395Y-6.9211
X7.5395Y-5.0211
X7.5395Y-6.9211
X7.6395Y-5.0211
X7.6995Y-6.9211
X7.7395Y-5.0211
X7.7995Y-6.9211
X7.8395Y-5.0211
X7.8995Y-6.9211
X7.9395Y-5.0211
X7.9995Y-6.9211
X8.0395Y-5.0211
X8.0995Y-6.9211
X8.1395Y-5.0211
X8.1995Y-6.9211
X8.2395Y-5.0211
X8.2995Y-6.9211
X8.3995Y-6.9211
X8.4995Y-6.9211
X8.5995Y-6.9211
T9
X6.9825Y-1.2766
X7.0825Y-1.2766
X7.4041Y-1.2766
X7.5041Y-1.2766
X7.7502Y-1.2766
X7.8502Y-1.2766
X8.1719Y-1.2766
X8.2719Y-1.2766
T10
X1.9506Y-6.1811
X1.9506Y-6.3811
X1.9506Y-6.5811
X2.7406Y-5.1053
X2.9406Y-5.1053
X3.528Y-5.1053
X3.728Y-5.1053
X4.3154Y-5.1053
X4.3179Y-4.5446
X4.5154Y-5.1053
X4.5179Y-4.5446
X5.0026Y-6.948
X5.1028Y-5.1053
X5.2026Y-6.948
X5.3028Y-5.1053
T11
X2.4073Y-5.6281
X2.4073Y-5.825
X2.4073Y-6.2187
X2.4073Y-6.4155
X5.0048Y-6.4992
X5.2016Y-6.4992
X5.5953Y-6.4992
X5.7922Y-6.4992
T12
X9.0807Y-1.8752
T13
X2.2369Y-1.178
X2.2369Y-1.3945
X2.4023Y-1.178
X2.4023Y-1.3945
X2.5676Y-1.178
X2.5676Y-1.3945
X2.733Y-1.178
X2.733Y-1.3945
X3.6129Y-1.1797
X3.6129Y-1.3963
X3.7782Y-1.1797
X3.7782Y-1.3963
X3.9436Y-1.1797
X3.9436Y-1.3963
X4.109Y-1.1797
X4.109Y-1.3963
X4.2743Y-1.1797
X4.2743Y-1.3963
X5.0888Y-5.9649
X5.0888Y-6.1815
X5.1445Y-1.1839
X5.1445Y-1.4004
X5.2542Y-5.9649
X5.2542Y-6.1815
X5.3098Y-1.1839
X5.3098Y-1.4004
X5.4195Y-5.9649
X5.4195Y-6.1815
X5.4752Y-1.1839
X5.4752Y-1.4004
X5.6406Y-1.1839
X5.6406Y-1.4004
T14
X6.9384Y-1.5896
X7.5482Y-1.5896
X7.7061Y-1.5896
X8.3159Y-1.5896
T15
X1.8502Y-5.9126
X2.0471Y-5.9126
X2.4861Y-5.0189
X2.4861Y-5.2157
X3.2735Y-5.0189
X3.2735Y-5.2157
X4.0609Y-5.0189
X4.0609Y-5.2157
X4.7677Y-4.5748
X4.8483Y-5.0189
X4.8483Y-5.2157
X4.9646Y-4.5748
X5.4571Y-6.8376
X5.4571Y-7.0344
T16
X1.9349Y-5.0701
X1.9349Y-6.9598
X5.8325Y-5.0701
X5.8325Y-6.9598
X6.305Y-5.0701
X6.305Y-6.9598
X9.3504Y-5.0701
X9.3504Y-6.9488
T3
G00X8.4756Y-1.2433
M15
G01X8.4756Y-1.3142
M16
G05
G00X8.4756Y-1.5102
M15
G01X8.4756Y-1.5811
M16
G05
G00X8.9835Y-1.2433
M15
G01X8.9835Y-1.3142
M16
G05
G00X8.9835Y-1.5102
M15
G01X8.9835Y-1.5811
M16
G05
M30
