M48
; DRILL file {KiCad 9.0.7} date 2026-05-26T09:24:00-0600
; FORMAT={-:-/ absolute / inch / decimal}
; #@! TF.CreationDate,2026-05-26T09:24:00-06:00
; #@! TF.GenerationSoftware,Kicad,Pcbnew,9.0.7
; #@! TF.FileFunction,NonPlated,1,4,NPTH
FMAT,2
INCH
; #@! TA.AperFunction,NonPlated,NPTH,ComponentDrill
T1C0.0197
; #@! TA.AperFunction,NonPlated,NPTH,ComponentDrill
T2C0.0433
; #@! TA.AperFunction,NonPlated,NPTH,ComponentDrill
T3C0.0630
; #@! TA.AperFunction,NonPlated,NPTH,ComponentDrill
T4C0.0984
; #@! TA.AperFunction,NonPlated,NPTH,ComponentDrill
T5C0.1000
; #@! TA.AperFunction,NonPlated,NPTH,ComponentDrill
T6C0.1181
; #@! TA.AperFunction,NonPlated,NPTH,ComponentDrill
T7C0.1280
%
G90
G05
T1
X2.2362Y-4.7343
X2.2362Y-4.8327
X2.2697Y-4.7343
X2.2697Y-4.8327
X2.3366Y-4.7343
X2.3366Y-4.8327
X2.3701Y-4.7343
X2.3701Y-4.8327
X3.9488Y-4.7343
X3.9488Y-4.8327
X3.9823Y-4.7343
X3.9823Y-4.8327
X4.0492Y-4.7343
X4.0492Y-4.8327
X4.0827Y-4.7343
X4.0827Y-4.8327
X5.5039Y-4.7343
X5.5039Y-4.8327
X5.5374Y-4.7343
X5.5374Y-4.8327
X5.6043Y-4.7343
X5.6043Y-4.8327
X5.6378Y-4.7343
X5.6378Y-4.8327
X6.0197Y-5.2811
X6.0197Y-5.3146
X6.0197Y-5.3815
X6.0197Y-5.415
X6.0197Y-5.9764
X6.0197Y-6.0098
X6.0197Y-6.0768
X6.0197Y-6.1102
X6.0197Y-6.6319
X6.0197Y-6.6654
X6.0197Y-6.7323
X6.0197Y-6.7657
X6.1181Y-5.2811
X6.1181Y-5.3146
X6.1181Y-5.3815
X6.1181Y-5.415
X6.1181Y-5.9764
X6.1181Y-6.0098
X6.1181Y-6.0768
X6.1181Y-6.1102
X6.1181Y-6.6319
X6.1181Y-6.6654
X6.1181Y-6.7323
X6.1181Y-6.7657
X6.4094Y-4.7343
X6.4094Y-4.8327
X6.4429Y-4.7343
X6.4429Y-4.8327
X6.5098Y-4.7343
X6.5098Y-4.8327
X6.5433Y-4.7343
X6.5433Y-4.8327
X7.9449Y-4.7343
X7.9449Y-4.8327
X7.9783Y-4.7343
X7.9783Y-4.8327
X8.0453Y-4.7343
X8.0453Y-4.8327
X8.0787Y-4.7343
X8.0787Y-4.8327
X9.2047Y-4.7343
X9.2047Y-4.8327
X9.2382Y-4.7343
X9.2382Y-4.8327
X9.3051Y-4.7343
X9.3051Y-4.8327
X9.3386Y-4.7343
X9.3386Y-4.8327
T2
X7.0335Y-4.6404
T3
X7.0335Y-2.0105
T4
X6.9518Y-5.5181
X6.9518Y-6.2181
T5
X8.7518Y-5.5181
X8.7518Y-6.2181
T7
X7.0183Y-1.4695
X7.4683Y-1.4695
X7.786Y-1.4695
X8.236Y-1.4695
T6
G00X9.3091Y-2.9003
M15
G01X9.2303Y-2.9003
M16
G05
G00X9.3091Y-4.1995
M15
G01X9.2303Y-4.1995
M16
G05
M30
